<svg width="20" height="20" viewBox="0 0 20 20" fill="none" xmlns="http://www.w3.org/2000/svg">
<path d="M7.80166 7.63182C7.80166 7.63182 5.16833 7.92348 3.41166 8.11848C3.25333 8.13765 3.11333 8.24348 3.06083 8.40432C3.00833 8.56515 3.06083 8.73265 3.17749 8.83848C4.48249 10.0293 6.44333 11.8127 6.44333 11.8127C6.44166 11.8127 5.90499 14.4068 5.54833 16.1377C5.51833 16.2943 5.57499 16.4602 5.71166 16.5593C5.84749 16.6585 6.0225 16.6602 6.16 16.5827C7.69666 15.7093 9.99833 14.396 9.99833 14.396C9.99833 14.396 12.3008 15.7093 13.835 16.5835C13.975 16.6602 14.15 16.6585 14.2858 16.5593C14.4225 16.4602 14.4792 16.2943 14.4483 16.1385C14.0917 14.4068 13.5558 11.8127 13.5558 11.8127C13.5558 11.8127 15.5167 10.0293 16.8217 8.84098C16.9383 8.73182 16.99 8.56432 16.9383 8.40432C16.8867 8.24432 16.7467 8.13848 16.5883 8.12015C14.8317 7.92348 12.1975 7.63182 12.1975 7.63182C12.1975 7.63182 11.1058 5.21682 10.3783 3.60682C10.31 3.46265 10.1667 3.36182 9.99833 3.36182C9.83 3.36182 9.68583 3.46348 9.62083 3.60682C8.89249 5.21682 7.80166 7.63182 7.80166 7.63182Z" fill="#2FC980"/>
</svg>
