<svg width="594" height="594" viewBox="0 0 594 594" fill="none" xmlns="http://www.w3.org/2000/svg">
<path d="M496.299 275.937C468.571 317.457 409.385 445.868 423.95 493.519L211.642 493.566C211.642 493.566 180.968 470.721 151.161 431.018C145.744 423.807 140.362 416.026 135.194 407.733C129.706 398.942 124.479 389.569 119.727 379.649C105.91 350.888 96.0498 317.552 95.6459 280.713C94.2559 153.181 204.633 34.654 354.796 82.4829C504.959 130.312 524.015 234.416 496.299 275.937Z" fill="#EAF9F8"/>
<path d="M363.457 495.028C363.029 495.028 362.613 494.838 362.316 494.481L249.1 353.715C248.601 353.085 248.696 352.171 249.326 351.66C249.955 351.161 250.87 351.256 251.381 351.886L364.597 492.652C365.108 493.281 365.001 494.196 364.371 494.707C364.11 494.921 363.777 495.028 363.457 495.028Z" fill="#E03C03"/>
<path d="M187.835 495.028C187.514 495.028 187.193 494.921 186.92 494.707C186.29 494.196 186.195 493.281 186.694 492.652L299.911 351.886C300.421 351.256 301.336 351.161 301.966 351.66C302.595 352.171 302.691 353.085 302.192 353.715L188.975 494.481C188.69 494.838 188.262 495.028 187.835 495.028Z" fill="#FF6224"/>
<path d="M301.051 495.028C300.623 495.028 300.208 494.838 299.911 494.481L186.694 353.715C186.195 353.085 186.29 352.171 186.92 351.66C187.55 351.161 188.464 351.256 188.975 351.886L302.192 492.652C302.702 493.281 302.595 494.196 301.966 494.707C301.704 494.921 301.384 495.028 301.051 495.028Z" fill="#FF6224"/>
<path d="M207.9 356.531H155.295C153.228 356.531 151.553 354.856 151.553 352.788C151.553 350.721 153.228 349.046 155.295 349.046H207.9C209.967 349.046 211.642 350.721 211.642 352.788C211.63 354.856 209.967 356.531 207.9 356.531Z" fill="#E03C03"/>
<path d="M359.239 356.531H208.898C206.831 356.531 205.156 354.856 205.156 352.788C205.156 350.721 206.831 349.046 208.898 349.046H359.239V356.531Z" fill="#FF6224"/>
<path d="M248.53 423.177C248.53 425.435 246.7 427.264 244.443 427.264C242.186 427.264 240.356 425.435 240.356 423.177C240.356 420.92 242.186 419.091 244.443 419.091C246.7 419.103 248.53 420.932 248.53 423.177Z" fill="#E03C03"/>
<path d="M310.935 423.177C310.935 425.435 309.106 427.264 306.849 427.264C304.591 427.264 302.762 425.435 302.762 423.177C302.762 420.92 304.591 419.091 306.849 419.091C309.106 419.103 310.935 420.932 310.935 423.177Z" fill="#FFC947"/>
<path d="M256.62 237.481H203.623C201.01 237.481 198.883 235.355 198.883 232.741V193.335C198.883 190.722 201.01 188.595 203.623 188.595H256.62C259.233 188.595 261.36 190.722 261.36 193.335V232.741C261.36 235.367 259.233 237.481 256.62 237.481Z" fill="#20C3C5"/>
<path d="M243.671 210.181H241.71C241.413 209.112 240.962 208.09 240.392 207.163L241.901 205.655C242.483 205.073 242.483 204.146 241.901 203.564L239.774 201.437C239.192 200.855 238.265 200.855 237.683 201.437L236.079 203.041C235.188 202.542 234.238 202.15 233.228 201.889V199.477C233.228 198.657 232.563 198.004 231.755 198.004H228.738C227.918 198.004 227.264 198.669 227.264 199.477V201.912C226.29 202.162 225.364 202.53 224.496 203.005L222.726 201.235C222.144 200.653 221.217 200.653 220.635 201.235L218.509 203.362C217.927 203.944 217.927 204.871 218.509 205.453L220.148 207.092C219.602 207.959 219.174 208.91 218.865 209.908H216.561C215.741 209.908 215.087 210.573 215.087 211.381V214.398C215.087 215.218 215.753 215.871 216.561 215.871H218.58C218.806 216.988 219.186 218.046 219.709 219.032L218.331 220.41C217.749 220.992 217.749 221.918 218.331 222.501L220.457 224.627C221.039 225.209 221.966 225.209 222.548 224.627L223.748 223.427C224.746 224.081 225.839 224.58 227.003 224.9V226.575C227.003 227.395 227.668 228.049 228.476 228.049H231.494C232.313 228.049 232.967 227.383 232.967 226.575V225.019C234.179 224.734 235.307 224.271 236.341 223.653L237.493 224.805C238.075 225.387 239.002 225.387 239.584 224.805L241.71 222.679C242.293 222.097 242.293 221.17 241.71 220.588L240.534 219.412C241.116 218.402 241.556 217.309 241.829 216.133H243.659C244.479 216.133 245.132 215.468 245.132 214.66V211.642C245.156 210.846 244.49 210.181 243.671 210.181ZM231.731 220.897C226.385 221.907 221.788 217.309 222.798 211.963C223.368 208.969 225.768 206.569 228.761 205.999C234.107 204.989 238.705 209.587 237.695 214.933C237.125 217.927 234.713 220.338 231.731 220.897Z" fill="white"/>
<path d="M336.394 210.478H283.397C280.784 210.478 278.657 208.351 278.657 205.738V166.332C278.657 163.718 280.784 161.592 283.397 161.592H336.394C339.008 161.592 341.134 163.718 341.134 166.332V205.738C341.134 208.363 339.02 210.478 336.394 210.478Z" fill="#FF6224"/>
<path d="M299.352 194.25C298.984 194.25 298.604 194.095 298.319 193.798L291.737 186.754C291.167 186.148 291.167 185.15 291.737 184.544L298.437 177.38C299.008 176.774 299.934 176.774 300.505 177.38C301.075 177.986 301.075 178.972 300.505 179.59L294.838 185.649L300.386 191.589C300.956 192.195 300.956 193.181 300.386 193.798C300.101 194.107 299.732 194.25 299.352 194.25Z" fill="white"/>
<path d="M320.451 194.25C320.083 194.25 319.703 194.095 319.418 193.798C318.847 193.193 318.847 192.207 319.418 191.589L324.977 185.649L319.311 179.59C318.74 178.984 318.74 177.998 319.311 177.38C319.881 176.774 320.808 176.774 321.378 177.38L328.078 184.544C328.351 184.841 328.506 185.233 328.506 185.649C328.506 186.065 328.351 186.457 328.078 186.754L321.497 193.798C321.2 194.107 320.819 194.25 320.451 194.25Z" fill="white"/>
<path d="M306.635 196.186C306.456 196.186 306.266 196.151 306.088 196.068C305.34 195.747 304.983 194.832 305.292 194.036L311.826 176.858C312.135 176.062 312.979 175.67 313.727 176.002C314.475 176.323 314.832 177.238 314.523 178.034L307.989 195.212C307.751 195.818 307.205 196.186 306.635 196.186Z" fill="white"/>
<path d="M384.235 219.875H252.747V215.836C252.747 214.743 253.626 213.864 254.719 213.864H382.263C383.356 213.864 384.235 214.743 384.235 215.836V219.875Z" fill="white"/>
<path d="M380.564 289.967H256.418C254.386 289.967 252.747 288.328 252.747 286.296V219.863H384.235V286.296C384.235 288.328 382.595 289.967 380.564 289.967Z" fill="#383873"/>
<path d="M377.927 216.869C377.927 217.38 377.511 217.796 377 217.796C376.489 217.796 376.073 217.38 376.073 216.869C376.073 216.359 376.489 215.943 377 215.943C377.511 215.943 377.927 216.359 377.927 216.869Z" fill="#FF6224"/>
<path d="M371.571 216.869C371.571 217.38 371.155 217.796 370.644 217.796C370.133 217.796 369.717 217.38 369.717 216.869C369.717 216.359 370.133 215.943 370.644 215.943C371.155 215.943 371.571 216.359 371.571 216.869Z" fill="#FF6224"/>
<path d="M365.215 216.869C365.215 217.38 364.799 217.796 364.288 217.796C363.777 217.796 363.362 217.38 363.362 216.869C363.362 216.359 363.777 215.943 364.288 215.943C364.799 215.943 365.215 216.359 365.215 216.869Z" fill="#FF6224"/>
<path d="M332.581 229.343H259.566C258.865 229.343 258.295 228.773 258.295 228.072C258.295 227.371 258.865 226.801 259.566 226.801H332.581C333.282 226.801 333.852 227.371 333.852 228.072C333.852 228.773 333.282 229.343 332.581 229.343Z" fill="#20C3C5"/>
<path d="M332.581 237.434H259.566C258.865 237.434 258.295 236.863 258.295 236.163C258.295 235.462 258.865 234.891 259.566 234.891H332.581C333.282 234.891 333.852 235.462 333.852 236.163C333.852 236.863 333.282 237.434 332.581 237.434Z" fill="#20C3C5"/>
<path d="M297.748 245.524H259.566C258.865 245.524 258.295 244.954 258.295 244.253C258.295 243.552 258.865 242.982 259.566 242.982H297.748C298.449 242.982 299.02 243.552 299.02 244.253C299.02 244.954 298.449 245.524 297.748 245.524Z" fill="#20C3C5"/>
<path d="M332.581 261.693H259.566C258.865 261.693 258.295 261.122 258.295 260.421C258.295 259.721 258.865 259.15 259.566 259.15H332.581C333.282 259.15 333.852 259.721 333.852 260.421C333.852 261.122 333.282 261.693 332.581 261.693Z" fill="#FF6224"/>
<path d="M297.748 269.783H259.566C258.865 269.783 258.295 269.213 258.295 268.512C258.295 267.811 258.865 267.241 259.566 267.241H297.748C298.449 267.241 299.02 267.811 299.02 268.512C299.02 269.213 298.449 269.783 297.748 269.783Z" fill="#FF6224"/>
<path d="M297.748 277.873H259.566C258.865 277.873 258.295 277.303 258.295 276.602C258.295 275.901 258.865 275.331 259.566 275.331H297.748C298.449 275.331 299.02 275.901 299.02 276.602C299.02 277.303 298.449 277.873 297.748 277.873Z" fill="#20C3C5"/>
<path d="M332.581 245.524H305.138C304.437 245.524 303.867 244.954 303.867 244.253C303.867 243.552 304.437 242.982 305.138 242.982H332.581C333.282 242.982 333.852 243.552 333.852 244.253C333.852 244.954 333.282 245.524 332.581 245.524Z" fill="white"/>
<path d="M368.815 227.359L349.415 246.759C348.916 247.258 348.108 247.258 347.621 246.759C347.122 246.26 347.122 245.453 347.621 244.966L367.021 225.566C367.52 225.067 368.328 225.067 368.815 225.566C369.314 226.064 369.314 226.86 368.815 227.359Z" fill="#FF6224"/>
<path d="M369.349 266.715C370.807 260.567 367.005 254.401 360.857 252.944C354.709 251.486 348.544 255.288 347.086 261.436C345.629 267.584 349.431 273.749 355.578 275.207C361.726 276.664 367.892 272.862 369.349 266.715Z" fill="#FF6224"/>
<path d="M356.721 272.04C356.721 275.616 353.822 278.515 350.246 278.515C346.67 278.515 343.772 275.616 343.772 272.04C343.772 268.464 346.67 265.566 350.246 265.566C353.822 265.566 356.721 268.464 356.721 272.04Z" fill="#20C3C5"/>
<path d="M252.747 282.875V306.005L274.012 284.752" fill="#383873"/>
<path d="M230.116 312.266H276.768L293.626 344.722H246.985L230.116 312.266Z" fill="#86BFBC"/>
<path d="M247.936 342.322L233.965 315.438C233.668 314.879 234.084 314.202 234.713 314.202H275.07C275.39 314.202 275.675 314.38 275.818 314.654L289.789 341.538C290.086 342.096 289.67 342.774 289.04 342.774H248.684C248.363 342.786 248.078 342.607 247.936 342.322Z" fill="white"/>
<path d="M284.764 344.722H246.985V349.058H284.764V344.722Z" fill="#B8E3E2"/>
<path d="M317.22 344.722H279.94C278.74 344.722 277.778 345.696 277.778 346.884C277.778 348.084 278.752 349.046 279.94 349.046H317.22C318.42 349.046 319.382 348.072 319.382 346.884C319.382 345.696 318.42 344.722 317.22 344.722Z" fill="#9FCCC9"/>
<path d="M246.985 344.722L230.116 312.254L229.272 312.884C228.726 313.287 228.559 314.036 228.88 314.642L246.985 349.046V344.722Z" fill="#B8E3E2"/>
<path d="M263.974 346.753H259.816V347.478H263.974V346.753Z" fill="#9FCCC9"/>
<path d="M269.201 346.753H265.043V347.478H269.201V346.753Z" fill="#9FCCC9"/>
<path d="M274.428 346.753H270.27V347.478H274.428V346.753Z" fill="#9FCCC9"/>
<path d="M332.022 408.268C332.022 408.268 293.329 438.396 287.199 446.047C284.882 448.945 280.855 454.018 276.673 459.221C269.807 467.763 262.524 476.673 261.657 476.887C260.279 477.232 248.672 468.393 248.316 466.492C248.102 465.304 258.675 447.163 267.823 432.575C273.394 423.712 278.432 416.145 280.202 414.505C284.882 410.169 313.656 394.927 313.656 394.927L332.022 408.268Z" fill="#383873"/>
<path opacity="0.15" d="M258.188 470.46C258.188 470.46 294.339 419.008 312.48 410.347" stroke="black" stroke-width="0.8185" stroke-miterlimit="10" stroke-linecap="round"/>
<path d="M372.355 276.162C371.951 277.101 371.476 278.063 370.953 279.061C368.126 284.467 370.216 289.884 366.985 291.262C366.795 291.345 366.581 291.416 366.332 291.464C362.174 292.391 352.587 286.843 352.159 284.075C351.743 281.307 355.117 276.555 352.159 275.984C349.201 275.414 347.609 280.38 347.609 280.38C345.173 280.629 344.318 276.555 340.326 276.555C339.768 276.555 339.21 276.638 338.675 276.768C336.798 277.232 335.159 278.396 334.101 279.287C333.329 279.94 332.878 280.451 332.878 280.451C332.878 280.451 329.325 278.206 329.492 273.786C329.777 266.777 332.355 261.657 338.592 260.623C339.281 252.83 345.696 248.66 354.273 248.399C361.794 248.161 362.922 254.921 363.088 256.608C363.017 255.349 362.673 251.226 360.879 248.399C364.645 248.233 367.959 250.917 367.092 259.673C367.959 257.071 370.989 255.42 373.329 257.333C371.167 257.333 369.088 260.968 369.088 260.968C369.088 260.968 371.63 262.596 373.353 265.601C374.814 268.072 374.268 271.743 372.355 276.162Z" fill="#382424"/>
<path d="M366.985 291.262L366.89 292.545L366.557 297.095C366.557 297.095 359.631 303.011 355.711 297.095C355.687 297.059 355.663 297.012 355.628 296.976C354.416 295.171 353.311 294.541 352.313 294.422C350.139 294.161 348.393 296.275 346.587 293.983C341.419 287.425 339.352 279.81 338.687 276.768C339.222 276.638 339.78 276.555 340.338 276.555C344.33 276.555 345.185 280.629 347.621 280.38C347.621 280.38 349.213 275.414 352.171 275.984C355.129 276.555 351.755 281.307 352.171 284.075C352.361 285.31 354.369 287.104 356.911 288.613C359.881 290.395 363.576 291.797 365.916 291.535C366.058 291.511 366.201 291.5 366.332 291.464C366.569 291.416 366.783 291.345 366.985 291.262Z" fill="#FFAD94"/>
<path opacity="0.25" d="M368.066 299.732C364.942 301.859 359.227 302.215 359.227 302.215L354.547 301.526C354.547 301.526 352.587 298.687 353.501 297.107C353.679 296.798 354.119 296.37 354.737 295.86C355.996 294.826 358.016 293.507 360.107 292.414C362.269 291.298 364.49 290.407 366.094 290.312C370.026 290.086 371.179 297.594 368.066 299.732Z" fill="black"/>
<path d="M367.14 375.574C360.178 376.917 345.447 372.818 338.402 369.646C336.323 368.708 334.897 367.852 334.565 367.258C333.21 364.871 334.576 363.053 337.927 355.485C338.307 354.63 338.699 353.703 339.126 352.705C341.407 347.348 341.407 335.919 341.407 326.07C341.384 317.636 341.336 310.365 342.679 309.07C345.589 306.266 360.095 297.095 360.095 297.095L362.982 312.147C362.982 312.147 364.621 319.786 366.332 329.765C369.504 348.132 372.984 374.446 367.14 375.574Z" fill="#20C3C5"/>
<path d="M371.987 382.275C371.987 382.964 365.049 399.132 359.239 401.449C353.43 403.766 318.384 401.211 318.384 401.211L301.051 412.545L304.674 446.676L307.205 470.46L307.288 471.232C301.99 474.689 288.636 475.628 287.199 472.646C287.187 472.634 287.187 472.622 287.187 472.622C285.797 469.616 264.544 405.619 272.86 394.523C281.176 383.439 334.541 367.258 334.541 367.258C335.931 368.137 337.546 368.945 339.305 369.646C345.233 372.082 352.777 373.602 358.515 374.493C360.724 374.838 362.661 375.087 364.134 375.265C365.999 375.491 367.128 375.574 367.128 375.574C367.128 375.574 371.987 381.574 371.987 382.275Z" fill="#383873"/>
<path d="M309.486 493.519H264.425C264.199 492.723 264.508 491.915 265.185 491.096C267.015 488.898 271.589 486.688 276.008 484.787C280.202 482.981 284.229 481.425 285.571 480.356C288.755 477.837 287.282 472.943 287.199 472.634C287.686 473.632 289.527 474.202 291.951 474.368C296.727 474.713 303.772 473.525 307.288 471.232L307.205 470.46C308.547 473.026 309.177 485.714 309.391 491.107C309.462 492.592 309.486 493.519 309.486 493.519Z" fill="#0C2059"/>
<path d="M291.951 474.368C291.82 476.519 291.5 480 290.882 480.926C289.955 482.316 280.023 487.163 278.645 486.7C277.754 486.403 276.661 485.441 276.008 484.787C280.202 482.981 284.229 481.425 285.571 480.356C288.755 477.837 287.282 472.943 287.199 472.634C287.686 473.644 289.527 474.202 291.951 474.368Z" fill="#2E4780"/>
<path d="M309.486 493.519H264.425C264.199 492.723 264.508 491.915 265.185 491.095H309.403C309.462 492.592 309.486 493.519 309.486 493.519Z" fill="#2E4780"/>
<path d="M261.657 476.887C261.657 476.887 258.236 485.916 255.266 490.68C254.089 492.58 252.973 493.816 252.189 493.519C249.421 492.473 221.574 468.797 224.235 467.074C224.627 466.825 225.245 466.646 226.029 466.551C228.452 466.242 232.468 466.575 236.174 466.955C239.358 467.288 242.328 467.644 243.873 467.644C247.805 467.644 248.316 466.492 248.316 466.492C248.399 466.943 249.147 467.811 250.24 468.868C253.686 472.135 260.612 477.148 261.657 476.887Z" fill="#0C2059"/>
<path d="M250.24 468.868C244.336 472.777 238.182 470.424 236.97 469.533C236.079 468.88 236.079 467.668 236.174 466.967C239.358 467.3 242.328 467.656 243.873 467.656C247.805 467.656 248.316 466.504 248.316 466.504C248.399 466.943 249.147 467.811 250.24 468.868Z" fill="#2E4780"/>
<path d="M255.266 490.68C254.089 492.58 252.973 493.816 252.189 493.519C249.421 492.474 221.574 468.797 224.235 467.074C224.627 466.825 225.245 466.646 226.029 466.551L255.266 490.68Z" fill="#2E4780"/>
<path d="M338.414 346.088C336.24 349.118 332.331 353.751 329.124 353.287C329.005 353.264 328.886 353.252 328.72 353.216C322.59 352.135 286.569 343.106 284.87 342.762C283.136 342.417 271.018 342.31 271.707 341.027C272.397 339.756 279.334 335.717 281.176 335.812C283.029 335.907 290.312 338.022 297.582 337.784C304.865 337.558 323.92 337.784 323.92 337.784L324.847 336.192L326.213 333.84C325.833 340.897 334.339 346.658 338.414 346.088Z" fill="#FFAD94"/>
<path opacity="0.15" d="M338.414 372.391C338.414 372.391 336.751 381.229 343.225 384.175" stroke="black" stroke-width="0.8185" stroke-miterlimit="10" stroke-linecap="round"/>
<path opacity="0.15" d="M335.016 379.495C335.016 379.495 292.224 397.742 290.169 403.409C288.114 409.064 301.051 470.448 301.051 470.448" stroke="black" stroke-width="0.8185" stroke-miterlimit="10" stroke-linecap="round"/>
<path opacity="0.15" d="M371.987 382.275C371.987 382.964 365.049 399.132 359.239 401.449C353.43 403.766 318.384 401.211 318.384 401.211L301.051 412.545L304.674 446.676C304.674 446.676 297.356 407.698 297.356 405.144C297.356 402.97 345.756 389.046 358.515 374.493C363.516 375.277 367.128 375.574 367.128 375.574C367.128 375.574 371.987 381.574 371.987 382.275Z" fill="black"/>
<path opacity="0.25" d="M349.165 340.909C346.159 345.162 341.312 350.579 337.915 355.473C338.295 354.618 338.687 353.691 339.115 352.694C341.396 347.336 341.396 335.907 341.396 326.059L351.767 319.192C351.779 319.204 354.024 334.042 349.165 340.909Z" fill="black"/>
<path d="M340.314 344.769C339.863 345.173 339.412 345.589 338.948 345.969C338.782 346.029 338.604 346.064 338.414 346.088C334.339 346.658 325.833 340.908 326.213 333.852C326.237 333.329 326.664 332.272 327.342 330.906C330.822 323.884 341.301 308.262 343.225 308.975C343.225 308.975 349.949 310.02 351.779 319.204C353.489 327.829 347.312 338.283 340.314 344.769Z" fill="#169799"/>
<path opacity="0.25" d="M364.146 375.266C362.673 375.087 360.736 374.838 358.527 374.493C352.788 373.602 345.257 372.07 339.317 369.646C344.544 369.456 355.735 366.023 357.089 340.398C357.707 345.197 358.622 350.163 359.905 355.248C361.639 362.007 363.255 369.124 364.146 375.266Z" fill="black"/>
<path opacity="0.25" d="M361.378 290.751C360.843 291.369 360.427 291.939 360.107 292.414C358.016 293.507 355.996 294.826 354.737 295.86C353.858 294.897 353.05 294.517 352.301 294.434L356.911 288.625C358.313 289.468 359.869 290.217 361.378 290.751Z" fill="black"/>
<path opacity="0.25" d="M338.414 346.088C336.24 349.118 332.331 353.751 329.124 353.288C329.005 353.264 328.886 353.252 328.72 353.216C324.752 347.478 324.609 339.958 324.835 336.204L326.201 333.852C325.833 340.897 334.339 346.658 338.414 346.088Z" fill="black"/>
<path opacity="0.25" d="M372.355 276.163C371.951 277.101 371.476 278.063 370.953 279.061C369.563 281.71 369.373 284.36 369.135 286.546C368.672 286.189 368.197 285.857 367.722 285.572C364.716 287.365 362.696 289.219 361.39 290.739L361.378 290.751C357.137 289.231 352.456 285.987 352.171 284.075C351.755 281.307 355.129 276.555 352.171 275.984C349.213 275.414 347.621 280.38 347.621 280.38C345.185 280.629 344.33 276.555 340.338 276.555C339.78 276.555 339.222 276.638 338.687 276.768C336.81 277.232 335.17 278.396 334.113 279.287C334.113 279.287 338.604 272.979 345.66 274.25C345.66 274.25 344.627 272.29 339.887 272.515C349.818 269.272 356.174 270.555 359.239 274.131C361.722 277.065 367.579 280.689 372.355 276.163Z" fill="black"/>
<path d="M392.551 412.545H357.885C357.885 412.545 385.387 404.455 385.387 349.925C385.387 349.224 385.387 348.535 385.375 347.846C385.09 311.399 377.309 291.309 367.71 285.571C370.715 283.789 374.707 282.091 379.994 280.914C382.298 280.392 384.841 279.976 387.644 279.679C411.381 277.255 430.341 286.557 432.598 297.095C434.844 307.633 420.968 412.545 392.551 412.545Z" fill="#B8E3E2"/>
<path d="M385.387 349.925C385.387 404.455 357.885 412.545 357.885 412.545H301.051L303.415 410.858L318.384 401.211L348.417 399.132C350.032 392.432 354.428 392.206 361.128 391.505C365.025 391.101 365.405 384.52 364.217 375.824C363.35 369.563 361.675 362.197 359.905 355.236C358.622 350.151 357.695 345.185 357.089 340.386C356.364 334.778 356.044 329.421 356.008 324.372C355.925 312.884 357.315 303.059 358.8 295.955C358.93 295.266 359.085 294.6 359.227 293.971C359.227 293.947 359.239 293.923 359.239 293.899C359.37 293.602 359.964 292.367 361.366 290.739L361.378 290.727C362.685 289.195 364.704 287.342 367.71 285.56C368.185 285.845 368.66 286.177 369.123 286.534C378.057 293.341 385.102 313.204 385.375 347.835C385.387 348.535 385.387 349.224 385.387 349.925Z" fill="#86BFBC"/>
<path d="M374.422 493.519H333.507C332.105 493.519 331.5 491.749 332.604 490.882L342.845 482.875C347.383 479.311 350.044 473.858 350.044 468.096V412.545H357.897V468.096C357.897 473.858 360.546 479.322 365.108 482.875L375.337 490.882C376.43 491.749 375.824 493.519 374.422 493.519Z" fill="#B8E3E2"/>
<g opacity="0.25">
<path d="M405.631 281.77C405.631 281.77 405.928 282.53 406.415 284.063" stroke="black" stroke-width="0.8185" stroke-miterlimit="10" stroke-linecap="round"/>
<path d="M407.793 288.803C409.183 294.018 410.989 302.132 412.426 313.192C416.145 341.883 412.367 382.168 387.419 407.674" stroke="black" stroke-width="0.8185" stroke-miterlimit="10" stroke-linecap="round" stroke-dasharray="4.15 4.15"/>
<path d="M385.649 409.42C385.066 409.979 384.472 410.525 383.867 411.072" stroke="black" stroke-width="0.8185" stroke-miterlimit="10" stroke-linecap="round"/>
</g>
<path opacity="0.15" d="M357.885 412.545V427.716C355.164 429.141 352.396 430.222 350.032 431.018V412.545H357.885Z" fill="black"/>
<path opacity="0.15" d="M368.755 388.975C366.902 394.749 355.366 393.715 353.965 397.992C350.995 407.056 349.343 403.065 337.927 404.229C331.393 404.894 326.652 409.076 323.789 412.557H301.063L303.427 410.87L318.396 401.223L348.429 399.144C350.044 392.444 354.44 392.218 361.14 391.517C365.037 391.113 365.417 384.532 364.229 375.836C363.362 369.575 361.687 362.209 359.916 355.248C358.633 350.163 357.707 345.197 357.101 340.398C356.376 334.79 356.055 329.432 356.02 324.383C360.463 347.537 370.121 384.698 368.755 388.975Z" fill="black"/>
<path opacity="0.15" d="M385.387 349.925C385.387 349.224 385.387 348.535 385.375 347.846C385.09 311.398 377.309 291.309 367.71 285.571C370.715 283.789 374.707 282.091 379.994 280.914C378.414 283.195 376.75 286.629 377.535 290.3C378.925 296.786 394.642 321.734 388.63 361.71C384.294 390.555 385.732 405.559 390.27 412.545H357.897C357.885 412.545 385.387 404.455 385.387 349.925Z" fill="black"/>
<path opacity="0.25" d="M187.062 320.225C187.039 321.485 186.932 322.685 186.694 323.742H175.539C172.26 321.568 166.914 317.255 163.706 310.793C166.688 314.036 171.785 317.992 176.976 319.204C181.503 320.249 184.877 319.798 187.062 320.225Z" fill="black"/>
<path d="M212.961 275.937C211.713 280.463 206.011 289.23 200.796 298.628C195.093 308.88 189.997 319.857 191.993 326.831C192.492 328.577 192.717 329.86 192.717 330.787C192.741 333.816 190.436 332.878 188.108 331.155C185.732 329.397 183.332 326.831 183.332 326.831L183.51 313.311C183.51 313.311 175.848 306.266 182.144 290.87C182.548 289.896 183 288.886 183.51 287.84C192.171 270.341 205.168 251.975 192.86 246.771C209.848 245.714 215.563 266.48 212.961 275.937Z" fill="#20C3C5"/>
<g opacity="0.53">
<path d="M192.86 246.759C196.044 247.448 198.812 249.587 200.57 252.307C201.045 252.973 201.378 253.721 201.758 254.434C202.043 255.194 202.4 255.931 202.602 256.727C202.827 257.511 203.053 258.295 203.16 259.103L203.374 260.303L203.445 261.526C203.374 264.817 202.328 267.953 201.247 271.006C200.119 274.048 198.812 277.03 197.457 279.976C194.749 285.868 191.838 291.666 189.26 297.606C187.989 300.576 186.765 303.57 185.863 306.658C185.399 308.191 185.055 309.759 184.853 311.327C184.651 312.895 184.675 314.499 185.174 315.913V315.925C185.257 316.174 185.126 316.459 184.877 316.543C184.627 316.638 184.342 316.495 184.259 316.246C184.259 316.246 184.259 316.246 184.259 316.234C183.7 314.57 183.736 312.836 183.95 311.208C184.188 309.569 184.568 307.965 185.055 306.397C186.017 303.273 187.288 300.267 188.607 297.297C191.268 291.369 194.25 285.607 197.03 279.762C198.42 276.84 199.75 273.881 200.915 270.864C202.031 267.846 203.1 264.734 203.207 261.514L203.148 260.314L202.958 259.126C202.851 258.319 202.649 257.546 202.423 256.762C202.245 255.978 201.889 255.242 201.615 254.481C201.247 253.757 200.926 253.02 200.463 252.355C198.764 249.658 196.032 247.496 192.86 246.759Z" fill="black"/>
</g>
<path d="M205.168 303.249C199.976 316.935 205.168 327.33 197.374 328.803C193.81 329.48 192.23 326.842 191.577 323.766C190.805 320.13 191.316 315.901 191.316 315.901C191.316 315.901 192.634 312.515 195.414 309.236C197.671 306.563 200.891 303.95 205.168 303.249Z" fill="#169799"/>
<path d="M187.062 320.225C187.039 323.409 186.314 326.118 184.841 327.532C184.698 327.674 184.544 327.805 184.413 327.912C180.73 330.894 178.378 325.429 178.378 325.429C178.378 325.429 168.577 320.594 163.718 310.781C160 303.249 159.168 292.759 167.924 279.287C169.207 288.886 174.47 295.42 179.685 301.621C179.685 301.633 179.685 301.633 179.685 301.633C180.338 302.405 180.98 303.166 181.621 303.938C185.209 308.274 187.11 314.915 187.062 320.225Z" fill="#B8E3E2"/>
<g opacity="0.53">
<path d="M167.912 279.299C167.068 283.421 166.855 287.674 167.247 291.856C167.686 296.026 168.839 300.16 171.096 303.688C173.27 307.276 176.299 310.222 179.044 313.454C180.41 315.07 181.717 316.792 182.643 318.752C183.57 320.712 183.997 322.946 183.819 325.132C183.795 325.405 183.558 325.595 183.297 325.571C183.023 325.548 182.833 325.31 182.857 325.049V325.037C183.059 323.017 182.714 320.962 181.871 319.097C181.039 317.22 179.804 315.533 178.485 313.905C175.836 310.674 172.83 307.621 170.68 303.926C168.447 300.291 167.365 296.061 167.009 291.868C166.688 287.662 166.985 283.409 167.912 279.299Z" fill="black"/>
</g>
<g opacity="0.25">
<path d="M205.168 303.249C203.683 304.971 202.293 306.777 200.974 308.63C199.655 310.484 198.396 312.385 197.279 314.345C195.034 318.265 193.121 322.471 192.492 326.878V326.89C192.456 327.151 192.207 327.341 191.945 327.306C191.684 327.27 191.494 327.021 191.529 326.759V326.747C192.361 322.138 194.464 317.968 196.863 314.095C198.075 312.147 199.406 310.294 200.784 308.488C202.162 306.682 203.611 304.924 205.168 303.249Z" fill="black"/>
</g>
<path d="M202.008 327.163L198.681 347.585C198.515 348.44 197.766 349.058 196.887 349.058H176.18C175.301 349.058 174.553 348.44 174.387 347.585L171.678 331L171.06 327.163C170.858 326.047 171.714 325.013 172.854 325.013H200.226C201.366 325.013 202.221 326.047 202.008 327.163Z" fill="#B8E3E2"/>
<path d="M205.168 331.321H167.912L168.898 325.761C169.112 324.597 170.122 323.742 171.31 323.742H201.782C202.958 323.742 203.98 324.597 204.182 325.761L205.168 331.321Z" fill="#86BFBC"/>
<path opacity="0.25" d="M191.304 315.901C191.304 315.901 190.793 320.107 191.553 323.742H186.682C186.92 322.685 187.027 321.485 187.051 320.225C187.098 314.927 185.197 308.274 181.598 303.95C180.956 303.178 180.315 302.429 179.661 301.645C179.661 301.645 179.661 301.645 179.661 301.633C179.744 298.651 180.422 295.075 182.132 290.87C182.417 295.776 183.617 304.318 188.524 305.221C192.242 305.898 197.101 302.203 200.796 298.628C198.836 302.132 196.97 305.732 195.414 309.236C192.634 312.515 191.304 315.901 191.304 315.901Z" fill="black"/>
<path opacity="0.25" d="M188.548 349.058H176.18C175.301 349.058 174.553 348.44 174.387 347.585L171.737 331.333H182.429C182.168 333.614 181.847 337.855 182.655 341.158C183.273 343.76 185.566 347.122 188.548 349.058Z" fill="black"/>
<path d="M282.245 180.861H229.248C226.635 180.861 224.508 178.735 224.508 176.121V136.715C224.508 134.101 226.635 131.975 229.248 131.975H282.245C284.859 131.975 286.985 134.101 286.985 136.715V176.121C286.985 178.746 284.859 180.861 282.245 180.861Z" fill="#383873"/>
<path d="M239.061 149.272V154.535C239.061 154.951 239.406 155.295 239.822 155.295H242.732C243.148 155.295 243.492 154.951 243.492 154.535V149.272C243.492 148.856 243.837 148.512 244.253 148.512H244.538C244.954 148.512 245.298 148.856 245.298 149.272V163.576C245.298 163.992 244.954 164.336 244.538 164.336H244.253C243.837 164.336 243.492 163.992 243.492 163.576V157.707C243.492 157.291 243.148 156.947 242.732 156.947H239.822C239.406 156.947 239.061 157.291 239.061 157.707V163.576C239.061 163.992 238.717 164.336 238.301 164.336H238.016C237.6 164.336 237.255 163.992 237.255 163.576V149.272C237.255 148.856 237.6 148.512 238.016 148.512H238.301C238.717 148.512 239.061 148.856 239.061 149.272Z" fill="white"/>
<path d="M249.219 150.128H247.852C247.437 150.128 247.092 149.783 247.092 149.367V149.272C247.092 148.856 247.437 148.512 247.852 148.512H253.911C254.327 148.512 254.672 148.856 254.672 149.272V149.367C254.672 149.783 254.327 150.128 253.911 150.128H252.545C252.129 150.128 251.785 150.472 251.785 150.888V163.576C251.785 163.992 251.44 164.336 251.024 164.336H250.739C250.323 164.336 249.979 163.992 249.979 163.576V150.888C249.979 150.472 249.634 150.128 249.219 150.128Z" fill="white"/>
<path d="M265.922 157.529C265.803 155.438 265.684 153.109 265.756 151.327H265.661C265.304 153.086 264.888 154.963 264.389 156.828L262.441 164.253H261.289L259.435 157.137C258.913 155.117 258.449 153.169 258.141 151.339H258.069C258.069 153.193 257.974 155.402 257.879 157.66L257.606 163.623C257.582 164.027 257.25 164.348 256.846 164.348H256.762C256.323 164.348 255.978 163.98 256.002 163.54L256.846 149.237C256.869 148.833 257.202 148.524 257.606 148.524H258.247C258.592 148.524 258.901 148.761 258.984 149.094L260.695 155.759C261.229 157.85 261.633 159.394 261.966 161.212H262.037C262.346 159.406 262.691 157.897 263.213 155.759L264.853 149.106C264.936 148.761 265.245 148.524 265.589 148.524H266.29C266.694 148.524 267.027 148.845 267.051 149.248L267.882 163.552C267.906 163.992 267.561 164.36 267.122 164.36H266.967C266.563 164.36 266.219 164.039 266.207 163.635L265.922 157.529Z" fill="white"/>
<path d="M271.161 148.512H271.446C271.862 148.512 272.206 148.856 272.206 149.272V162.043C272.206 162.459 272.551 162.804 272.967 162.804H275.901C276.317 162.804 276.661 163.148 276.661 163.564C276.661 163.98 276.317 164.324 275.901 164.324H271.161C270.745 164.324 270.401 163.98 270.401 163.564V149.26C270.401 148.856 270.745 148.512 271.161 148.512Z" fill="white"/>
<path d="M306.409 136.169C308.393 136.169 308.856 134.838 308.856 133.65C308.856 132.605 308.749 131.595 308.642 130.585C308.535 129.504 308.429 128.53 308.429 127.413C308.429 124.17 310.413 122.804 312.967 122.804H313.394V124.681H312.848C311.339 124.681 310.721 125.762 310.721 127.389C310.721 128.363 310.828 129.266 310.935 130.134C311.007 131.072 311.113 131.939 311.113 132.807C311.149 135.622 310.175 136.596 308.631 137.024V137.095C310.175 137.559 311.149 138.533 311.113 141.384C311.113 142.287 311.007 143.19 310.935 144.093C310.828 144.995 310.721 145.898 310.721 146.872C310.721 148.5 311.268 149.617 312.884 149.617H313.383V151.494H312.919C310.543 151.494 308.417 150.306 308.417 146.884C308.417 145.803 308.524 144.722 308.631 143.677C308.737 142.631 308.844 141.586 308.844 140.576C308.844 139.424 308.381 138.022 306.397 138.022V136.169H306.409Z" fill="#383873"/>
<path d="M343.154 137.974C341.17 137.974 340.707 139.376 340.707 140.529C340.707 141.538 340.813 142.584 340.92 143.629C341.027 144.675 341.134 145.756 341.134 146.837C341.134 150.258 339.008 151.446 336.632 151.446H336.168V149.569H336.679C338.307 149.391 338.841 148.452 338.841 146.825C338.841 145.851 338.734 144.948 338.663 144.045C338.556 143.142 338.449 142.239 338.449 141.336C338.414 138.485 339.388 137.511 340.932 137.048V136.976C339.376 136.549 338.414 135.575 338.449 132.759C338.449 131.892 338.556 131.025 338.663 130.086C338.734 129.219 338.841 128.316 338.841 127.342C338.841 125.714 338.224 124.823 336.715 124.633H336.168V122.756H336.596C339.15 122.756 341.134 124.122 341.134 127.365C341.134 128.482 341.027 129.456 340.92 130.537C340.813 131.547 340.707 132.557 340.707 133.602C340.707 134.79 341.17 136.121 343.154 136.121V137.974Z" fill="#383873"/>
<path d="M330.787 140.588V133.662L324.775 130.193L318.776 133.662V140.588L324.775 144.057L330.787 140.588Z" fill="#FF6224"/>
<path d="M375.978 175.147C370.335 172.331 363.54 173.448 359.085 177.903C353.573 183.415 353.394 192.242 358.503 197.992L356.305 197.731C356.044 197.695 355.794 197.885 355.77 198.158C355.735 198.42 355.925 198.669 356.198 198.693L359.548 199.097C359.679 199.109 359.81 199.073 359.905 199.002C360 198.931 360.071 198.812 360.083 198.681L360.463 195.438C360.499 195.177 360.309 194.927 360.035 194.903C359.774 194.868 359.524 195.058 359.501 195.331L359.251 197.398C354.452 192.028 354.618 183.772 359.774 178.616C363.944 174.446 370.276 173.412 375.551 176.038C375.788 176.157 376.085 176.062 376.204 175.824C376.311 175.563 376.216 175.266 375.978 175.147Z" fill="#FF6224"/>
<path d="M363.35 202.055C368.993 204.871 375.788 203.754 380.243 199.299C385.756 193.787 385.934 184.96 380.825 179.21L383.023 179.471C383.284 179.507 383.534 179.317 383.558 179.044C383.593 178.782 383.403 178.533 383.13 178.509L379.78 178.105C379.649 178.093 379.519 178.129 379.423 178.2C379.328 178.271 379.257 178.39 379.245 178.521L378.865 181.764C378.829 182.025 379.02 182.275 379.293 182.299C379.554 182.334 379.804 182.144 379.827 181.871L380.077 179.804C384.876 185.174 384.71 193.43 379.554 198.586C375.384 202.756 369.052 203.79 363.777 201.164C363.54 201.045 363.243 201.14 363.124 201.378C363.017 201.639 363.112 201.936 363.35 202.055Z" fill="#FF6224"/>
<path d="M493.388 229.343H405.393C403.789 229.343 402.494 228.049 402.494 226.445C402.494 224.841 403.789 223.546 405.393 223.546H493.388C494.992 223.546 496.287 224.841 496.287 226.445C496.299 228.049 494.992 229.343 493.388 229.343Z" fill="#FF6224"/>
<path d="M461.966 241.972H405.393C403.789 241.972 402.494 240.677 402.494 239.073C402.494 237.469 403.789 236.174 405.393 236.174H461.966C463.569 236.174 464.864 237.469 464.864 239.073C464.876 240.677 463.569 241.972 461.966 241.972Z" fill="#20C3C5"/>
<path d="M461.966 255.527H405.393C403.789 255.527 402.494 254.232 402.494 252.628C402.494 251.024 403.789 249.729 405.393 249.729H461.966C463.569 249.729 464.864 251.024 464.864 252.628C464.876 254.232 463.569 255.527 461.966 255.527Z" fill="#20C3C5"/>
<path d="M181.372 181.087H135.658C134.054 181.087 132.759 179.792 132.759 178.188C132.759 176.584 134.054 175.289 135.658 175.289H181.372C182.976 175.289 184.271 176.584 184.271 178.188C184.271 179.792 182.976 181.087 181.372 181.087Z" fill="#20C3C5"/>
<path d="M164.11 193.715H135.658C134.054 193.715 132.759 192.42 132.759 190.817C132.759 189.213 134.054 187.918 135.658 187.918H164.11C165.714 187.918 167.009 189.213 167.009 190.817C167.009 192.42 165.714 193.715 164.11 193.715Z" fill="#FF6224"/>
<path d="M164.11 207.27H135.658C134.054 207.27 132.759 205.975 132.759 204.372C132.759 202.768 134.054 201.473 135.658 201.473H164.11C165.714 201.473 167.009 202.768 167.009 204.372C167.009 205.975 165.714 207.27 164.11 207.27Z" fill="#FF6224"/>
<path d="M453.745 391.624C450.894 399.893 447.496 407.104 443.932 413.614C431.636 436.079 417.344 450.383 416.81 471.327C416.81 471.327 412.379 451.583 415.931 429.094C417.927 416.465 422.441 402.97 431.66 391.612C457.344 360.035 453.543 331.309 453.543 331.309C453.543 331.309 466.421 354.879 453.745 391.624Z" fill="#169799"/>
<g opacity="0.25">
<path d="M423.486 446.759C423.106 444.134 423.213 441.591 423.451 439.025C423.7 436.471 424.164 433.941 424.817 431.47C426.088 426.516 427.977 421.74 430.282 417.19C431.387 414.885 432.705 412.711 434 410.513L438.134 404.134C440.772 399.845 442.993 395.283 444.858 390.591C446.747 385.898 448.327 381.087 449.67 376.204C451.012 371.321 452.117 366.379 452.984 361.39C453.852 356.4 454.493 351.375 454.802 346.314C454.956 343.783 455.028 341.253 454.909 338.723C454.85 337.463 454.766 336.192 454.564 334.945C454.351 333.697 454.125 332.438 453.531 331.309C454.137 332.426 454.398 333.697 454.624 334.945C454.85 336.192 454.957 337.463 455.04 338.723C455.194 341.253 455.158 343.795 455.052 346.338C454.826 351.41 454.232 356.459 453.412 361.473C452.592 366.486 451.547 371.464 450.252 376.37C448.969 381.289 447.425 386.136 445.571 390.876C443.742 395.616 441.544 400.237 438.918 404.621L434.82 411.024C433.549 413.198 432.242 415.36 431.161 417.641C428.904 422.144 427.05 426.86 425.815 431.731C425.185 434.166 424.734 436.638 424.461 439.132C424.199 441.603 424.092 444.169 424.425 446.581L424.437 446.629C424.472 446.89 424.282 447.139 424.021 447.175C423.772 447.211 423.522 447.033 423.486 446.759Z" fill="black"/>
</g>
<path opacity="0.25" d="M443.932 413.626C431.636 436.091 417.344 450.395 416.81 471.339C416.81 471.339 412.379 451.594 415.931 429.106C423.914 425.85 435.129 420.552 443.932 413.626Z" fill="black"/>
<path d="M423.95 493.531C423.95 493.531 414.968 478.17 436.222 459.221C457.475 440.273 474.119 415.206 470.876 394.927C450.537 418.544 396.471 452.046 411.725 493.519L423.95 493.531Z" fill="#20C3C5"/>
<g opacity="0.25">
<path d="M470.876 394.927C468.844 399.406 466.124 403.528 463.201 407.472C460.243 411.393 456.988 415.087 453.519 418.58C450.086 422.096 446.296 425.257 442.542 428.405C438.812 431.565 435.426 435.141 432.408 438.99C426.373 446.688 421.657 455.455 418.818 464.805C417.428 469.486 416.477 474.309 416.346 479.18C416.204 484.027 416.822 488.957 418.77 493.376C418.877 493.626 418.77 493.911 418.521 494.018C418.271 494.125 417.986 494.018 417.879 493.769C415.907 489.147 415.313 484.086 415.503 479.156C415.681 474.202 416.691 469.319 418.128 464.603C421.075 455.182 425.898 446.391 432.04 438.693C435.105 434.844 438.538 431.28 442.328 428.131C446.118 425.007 449.919 421.906 453.376 418.414C456.857 414.968 460.136 411.298 463.13 407.413C466.064 403.492 468.809 399.382 470.876 394.927Z" fill="black"/>
</g>
<path d="M118.871 382.275C118.871 382.275 107.775 372.165 101.895 346.896C135.86 375.693 144.176 401.342 144.176 401.342L118.871 382.275Z" fill="#169799"/>
<g opacity="0.25">
<path d="M101.883 346.896C106.611 353.656 111.232 360.487 115.723 367.413C117.968 370.87 120.166 374.363 122.305 377.903C124.431 381.443 126.51 385.019 128.233 388.821C128.34 389.07 128.233 389.355 127.995 389.462C127.746 389.569 127.461 389.462 127.354 389.224C127.354 389.224 127.354 389.224 127.354 389.213L127.342 389.201C125.726 385.458 123.718 381.847 121.675 378.271C119.62 374.707 117.481 371.179 115.307 367.674C110.959 360.665 106.48 353.751 101.883 346.896Z" fill="black"/>
</g>
<path d="M143.475 396.483C137.368 390.983 128.328 385.53 119.715 379.649C108.274 371.844 97.6061 363.267 95.634 352.788C91.1434 390.579 135.099 407.603 135.099 407.603L135.183 407.733L151.149 431.018C151.161 431.018 157.683 409.302 143.475 396.483Z" fill="#20C3C5"/>
<g opacity="0.25">
<path d="M95.634 352.788C95.6578 357.006 96.8814 361.128 98.6515 364.906C100.505 368.672 103.011 372.093 105.993 375.028C108.975 377.974 112.42 380.398 115.949 382.679C119.465 384.971 123.041 387.181 126.522 389.557C133.46 394.273 140.101 399.762 144.746 406.902C149.462 413.982 151.636 422.56 151.636 431.018C151.636 431.291 151.422 431.505 151.149 431.505C150.876 431.505 150.662 431.291 150.662 431.018V431.006C150.733 422.702 148.69 414.291 144.128 407.282C139.626 400.225 133.104 394.701 126.237 389.949C122.792 387.549 119.24 385.304 115.747 382.976C112.242 380.659 108.797 378.188 105.827 375.194C102.845 372.212 100.362 368.743 98.5446 364.954C96.8101 361.152 95.6221 357.006 95.634 352.788Z" fill="black"/>
</g>
<path d="M456.441 510.389H161.093C156.436 510.389 152.658 506.611 152.658 501.954C152.658 497.297 156.436 493.519 161.093 493.519H456.441C461.098 493.519 464.876 497.297 464.876 501.954C464.876 506.611 461.098 510.389 456.441 510.389Z" fill="#EAF9F8"/>
</svg>
