<svg width="472" height="472" viewBox="0 0 472 472" fill="none" xmlns="http://www.w3.org/2000/svg">
<path d="M439.602 287.524L424.715 392.034H46.256L35.079 312.304C33.833 303.373 38.7701 294.717 47.1056 291.252L80.6931 277.309V243.901C80.6931 234.055 87.8958 225.71 97.6379 224.294L105.577 223.133L118.916 178.02C121.398 169.59 129.139 163.822 137.909 163.822H274.374C279.566 163.822 284.323 165.823 287.863 169.118C291.413 172.422 293.744 177.019 294.122 182.192L359.107 189.055C368.755 190.084 376.231 197.919 376.807 207.595L379.431 252.671L425.347 265.642C434.92 268.36 440.999 277.706 439.602 287.524Z" fill="#DAE8EF"/>
<path d="M68.9403 309.085L80.7592 392.043H381.168L390.042 328.758C391.033 321.668 387.106 314.796 380.498 312.049L353.84 300.985V274.468C353.84 266.652 348.119 260.034 340.388 258.911L334.082 257.986L323.49 222.18C321.517 215.487 315.372 210.918 308.414 210.918H200.09C195.965 210.918 192.198 212.504 189.385 215.119C186.572 217.743 184.712 221.387 184.41 225.503L132.83 230.95C125.174 231.761 119.237 237.982 118.774 245.667L116.688 281.444L80.24 291.743C72.6597 293.867 67.8358 301.287 68.9403 309.085Z" fill="#CCD9E2"/>
<path d="M316.778 361.127C316.778 352.188 310.236 344.607 301.381 343.314L294.169 342.257L282.048 301.278C279.792 293.622 272.759 288.383 264.792 288.383H140.826C136.106 288.383 131.792 290.204 128.573 293.197C125.354 296.199 123.23 300.371 122.88 305.073L69.2047 310.737L80.7781 392.034H318.137L316.778 391.467V361.127Z" fill="#BCCED8"/>
<path d="M205.584 93.5693H113.497V179.52H205.584V93.5693Z" fill="#112B46"/>
<path d="M205.584 93.5693H113.497V102.66H205.584V93.5693Z" fill="#1D262D"/>
<path d="M185.685 98.2137C185.685 99.1294 184.939 99.8846 184.014 99.8846C183.089 99.8846 182.343 99.1389 182.343 98.2137C182.343 97.2886 183.089 96.5428 184.014 96.5428C184.939 96.5428 185.685 97.2981 185.685 98.2137Z" fill="#606BF1"/>
<path d="M192.642 98.2137C192.642 99.1294 191.896 99.8846 190.971 99.8846C190.056 99.8846 189.3 99.1389 189.3 98.2137C189.3 97.2886 190.046 96.5428 190.971 96.5428C191.896 96.5523 192.642 97.2981 192.642 98.2137Z" fill="#FBD15B"/>
<path d="M199.099 98.3931C199.099 99.3088 198.353 100.064 197.428 100.064C196.503 100.064 195.757 99.3182 195.757 98.3931C195.757 97.4774 196.503 96.7222 197.428 96.7222C198.353 96.7222 199.099 97.468 199.099 98.3931Z" fill="#FF8578"/>
<path d="M142.922 111.109H129.876V112.204H142.922V111.109Z" fill="#FF8578"/>
<path d="M158.233 111.109H145.187V112.204H158.233V111.109Z" fill="#FBD15B"/>
<path d="M154.136 117.018H133.906V118.113H154.136V117.018Z" fill="#606BF1"/>
<path d="M167.758 117.018H157.478V118.113H167.758V117.018Z" fill="#FF8578"/>
<path d="M149.803 122.918H140.92V124.013H149.803V122.918Z" fill="#FBD15B"/>
<path d="M184.41 122.918H154.939V124.013H184.41V122.918Z" fill="#FBD15B"/>
<path d="M181.503 128.828H147.821V129.923H181.503V128.828Z" fill="#606BF1"/>
<path d="M149.766 134.728H139.401V135.823H149.766V134.728Z" fill="#FF8578"/>
<path d="M164.568 134.728H154.202V135.823H164.568V134.728Z" fill="#606BF1"/>
<path d="M144.951 165.37H129.876V166.465H144.951V165.37Z" fill="#FF8578"/>
<path d="M165.313 165.37H150.238V166.465H165.313V165.37Z" fill="#FBD15B"/>
<path d="M185.118 165.37H170.043V166.465H185.118V165.37Z" fill="#FF8578"/>
<path d="M163.378 159.46H133.906V160.555H163.378V159.46Z" fill="#606BF1"/>
<path d="M197.447 159.46H167.975V160.555H197.447V159.46Z" fill="#FF8578"/>
<path d="M170.165 153.56H140.92V154.656H170.165V153.56Z" fill="#FF8578"/>
<path d="M180.852 153.56H172.714V154.656H180.852V153.56Z" fill="#FBD15B"/>
<path d="M150.021 147.651H139.013V148.746H150.021V147.651Z" fill="#FBD15B"/>
<path d="M166.88 147.651H155.873V148.746H166.88V147.651Z" fill="#606BF1"/>
<path d="M184.967 147.651H173.96V148.746H184.967V147.651Z" fill="#FF8578"/>
<path d="M167.211 141.751H151.776V142.846H167.211V141.751Z" fill="#FBD15B"/>
<path d="M145.952 141.751H130.517V142.846H145.952V141.751Z" fill="#606BF1"/>
<path d="M122.748 110.052H121.342V111.458H122.748V110.052Z" fill="#F9FBFC"/>
<path d="M122.739 161.547H121.332V158.686H122.739V161.547ZM122.739 154.391H121.332V151.531H122.739V154.391ZM122.739 147.236H121.332V144.375H122.739V147.236ZM122.739 140.08H121.332V137.22H122.739V140.08ZM122.739 132.925H121.332V130.064H122.739V132.925ZM122.739 125.769H121.332V122.909H122.739V125.769ZM122.739 118.614H121.332V115.753H122.739V118.614Z" fill="#F9FBFC"/>
<path d="M122.748 165.832H121.342V167.239H122.748V165.832Z" fill="#F9FBFC"/>
<path d="M301.24 75.3029H225.408V122.04H301.24V75.3029Z" fill="#FF8578"/>
<path d="M254.852 94.1073L245.827 97.9588L254.852 101.754L253.672 104.482L242.853 99.6486V96.3068L253.672 91.4453L254.852 94.1073Z" fill="#F9FBFC"/>
<path d="M268.153 85.196L261.601 110.354L258.486 109.627L265.066 84.4974L268.153 85.196Z" fill="#F9FBFC"/>
<path d="M283.814 96.2974V99.6392L272.995 104.472L271.815 101.744L280.812 97.9494L271.815 94.0979L272.995 91.4264L283.814 96.2974Z" fill="#F9FBFC"/>
<path d="M341.822 165.861H298.634V196.635H341.822V165.861Z" fill="#606BF1"/>
<path d="M316.703 172.506C315.315 172.506 314.852 172.884 314.852 173.922V178.557C314.852 180.37 314.107 180.917 312.842 181.267C314.097 181.597 314.852 182.145 314.852 183.938V188.573C314.852 189.612 315.334 189.989 316.703 189.989V192.019C313.2 192.019 312.2 190.896 312.2 188.554V184.165C312.2 182.909 311.869 182.418 310.727 182.418V180.106C311.869 180.106 312.2 179.596 312.2 178.34V173.951C312.2 171.591 313.191 170.486 316.703 170.486V172.506Z" fill="#F1F2F2"/>
<path d="M328.257 173.941V178.331C328.257 179.587 328.588 180.096 329.758 180.096V182.409C328.588 182.409 328.257 182.891 328.257 184.156V188.545C328.257 190.886 327.266 192.01 323.754 192.01V189.98C325.123 189.98 325.605 189.602 325.605 188.564V183.929C325.605 182.145 326.35 181.588 327.615 181.257C326.36 180.908 325.605 180.351 325.605 178.548V173.913C325.605 172.875 325.142 172.497 323.754 172.497V170.468C327.266 170.477 328.257 171.581 328.257 173.941Z" fill="#F1F2F2"/>
<path d="M132.641 82.0147H84.1859V114.422H132.641V82.0147Z" fill="#FBD15B"/>
<path d="M100.225 91.3131C97.9117 94.2112 97.9495 98.4403 100.3 101.301C102.981 104.548 107.569 105.077 110.863 102.877L115.952 107.965C116.169 108.182 116.518 108.182 116.726 107.965L118.151 106.54C118.368 106.323 118.368 105.973 118.151 105.766L113.063 100.678C115.121 97.5907 114.79 93.3711 112.072 90.6429C108.768 87.32 103.236 87.5466 100.225 91.3131ZM110.429 100.234C108.239 102.424 104.671 102.424 102.481 100.234C100.291 98.0439 100.291 94.4755 102.481 92.2855C104.671 90.0954 108.239 90.0954 110.429 92.2855C112.629 94.4755 112.629 98.0439 110.429 100.234Z" fill="#F9FBFC"/>
<path d="M273.6 182.116C273.496 183.183 272.032 194.36 260.535 194.36C248.47 194.36 250.49 182.419 250.49 182.419L250.472 182.343C251.652 182.098 252.917 182.013 254.257 182.164V176.509L267.954 168.844H268.455V182.041C268.455 182.041 270.626 181.786 273.6 182.116Z" fill="url(#paint0_radial_17_990)"/>
<path d="M266.944 143.601C268.889 145.574 270.352 148.123 271.06 151.229C272.372 157.034 271.136 163.17 269.455 168.759C269.172 169.712 268.842 170.685 268.247 171.487C267.822 172.063 267.284 172.535 266.746 173.007C264.311 175.131 261.875 177.255 259.44 179.379C257.788 180.823 247.649 182.022 245.714 180.634C238.256 175.301 236.821 159.847 238.313 151.946C240.796 138.843 257.637 134.161 266.944 143.601Z" fill="url(#paint1_radial_17_990)"/>
<path d="M262.753 160.367C262.857 159.102 264.15 157.723 265.453 158.545C266.803 159.394 266.482 161.632 265.925 162.868C265.491 163.831 264.018 164.898 263.027 163.992C262.196 163.236 263.489 162.349 263.527 161.66C263.565 161.037 262.328 160.593 262.838 159.932" fill="#F7B094"/>
<path d="M262.989 166.201C264.348 166.607 266.652 165.568 267.237 163.68C267.822 161.783 267.756 159.621 267.756 159.621C267.756 159.621 268.445 161.339 268.087 164.095C267.737 166.852 266.765 169.476 264.603 169.514C262.441 169.552 262.989 166.201 262.989 166.201Z" fill="#F7B094"/>
<path d="M261.328 164.237C261.28 164.256 261.233 164.275 261.177 164.284C260.336 164.398 259.997 163.387 259.874 162.746C259.581 161.254 259.628 159.753 259.572 158.243C259.562 157.865 259.591 157.393 259.44 157.044C258.968 155.958 257.703 155.26 257.325 154.136C256.881 152.834 258.137 151.54 257.637 150.115C256.872 147.934 254.068 147.434 252.039 147.453C248.999 147.491 246.035 148.057 243.033 148.519C239.87 149.01 235.821 149.473 233.026 147.472C229.666 145.055 228.259 138.768 230.77 135.322C232.139 133.444 234.735 132.443 237.01 132.396C239.417 132.339 241.456 133.774 243.665 134.501C245.431 135.077 247.13 133.397 248.772 133.066C250.84 132.651 251.718 134.907 253.549 134.973C255.324 135.03 257.07 133.642 258.798 133.331C262.243 132.698 262.045 136.163 264.348 137.343C265.783 138.079 267.643 137.635 269.097 138.381C270.201 138.947 270.352 139.948 270.598 141.071C270.805 142.044 270.815 143.176 271.136 144.102C271.428 144.932 272.127 145.461 272.674 146.112C273.269 146.82 273.656 147.66 273.958 148.548C274.629 150.53 274.78 152.664 274.591 154.74C274.279 158.224 273.165 161.651 272.004 164.926C271.249 167.05 270.966 169.269 269.814 171.279C269.503 171.817 268.115 173.403 267.605 172.223C267.492 171.968 267.511 171.685 267.53 171.411C267.681 169.221 269.72 155.09 264.377 156.789C263.253 157.148 262.498 158.082 262.083 159.149C261.582 160.423 261.545 161.707 261.611 163.057C261.62 163.246 261.63 163.444 261.62 163.633C261.601 163.878 261.535 164.133 261.328 164.237Z" fill="#3D3D7A"/>
<path d="M254.257 180.87C260.346 179.889 264.358 175.084 264.358 175.084C264.358 175.084 262.715 183.183 253.889 183.617L254.257 180.87Z" fill="#F7B094"/>
<path d="M264.245 291.29H272.958V374.862C272.958 375.712 272.268 376.401 271.419 376.401H265.783C264.934 376.401 264.245 375.712 264.245 374.862V291.29Z" fill="#0A2033"/>
<path d="M244.656 292.489H292.555V293.801C292.555 297.096 289.884 299.758 286.598 299.758H250.623C247.328 299.758 244.666 297.086 244.666 293.801V292.489H244.656Z" fill="#30475E"/>
<path d="M264.245 366.489H272.958V385.851C272.958 386.7 272.268 387.389 271.419 387.389H265.783C264.934 387.389 264.245 386.7 264.245 385.851V366.489Z" fill="#0A2033"/>
<path d="M223.407 382.292C223.407 385.105 225.692 387.389 228.505 387.389C231.318 387.389 233.602 385.105 233.602 382.292C233.602 379.479 231.318 377.194 228.505 377.194C225.682 377.194 223.407 379.469 223.407 382.292Z" fill="#0A2033"/>
<path d="M303.609 382.292C303.609 385.105 305.894 387.389 308.707 387.389C311.52 387.389 313.804 385.105 313.804 382.292C313.804 379.479 311.52 377.194 308.707 377.194C305.884 377.194 303.609 379.469 303.609 382.292Z" fill="#0A2033"/>
<path d="M259.84 375.306H277.36V359.994H259.84V375.306Z" fill="#30475E"/>
<path d="M223.407 378.912H313.804V377.137C313.804 374.135 311.369 371.709 308.376 371.709H228.835C225.833 371.709 223.407 374.145 223.407 377.137V378.912Z" fill="#FBD15B"/>
<path d="M268.606 301.466H265.585V358.626H268.606V301.466Z" fill="#30475E"/>
<path d="M302.826 230.714C300.74 230.647 299.04 232.375 299.154 234.461C299.748 244.836 297.549 270.144 287.892 278.782C276.073 289.336 242.589 287.901 242.589 287.901C242.589 287.901 237.057 294.688 248.121 296.199C259.185 297.709 290.356 296.699 297.889 289.666C305.186 282.851 309.519 265 306.252 233.933C306.073 232.148 304.61 230.77 302.826 230.714Z" fill="#FBD15B"/>
<path d="M240.078 358.626L244.062 367.707L231.865 373.059L227.863 363.95L240.078 358.626Z" fill="url(#paint2_radial_17_990)"/>
<path d="M297.624 257.712C296.869 259.222 242.655 257.74 237.539 258.212C237.539 258.212 204.357 274.053 199.59 288.873C199.108 290.365 198.976 292.338 199.118 294.698C200.449 315.57 224.219 365.555 224.219 365.555L227.872 363.959L240.088 358.635L241.825 357.88C241.825 357.88 222.973 301.693 226.739 298.682C230.506 295.661 273.241 288.128 288.062 284.116C302.901 280.075 297.624 257.712 297.624 257.712Z" fill="#56548C"/>
<path d="M193.567 360.967L194.521 374.608H181.201L180.247 360.938L193.567 360.967Z" fill="url(#paint3_radial_17_990)"/>
<path d="M237.265 257.74L236.784 257.948C236.784 257.948 181.239 265.745 172.186 281.321C166.305 291.46 177.689 365.517 177.689 365.517L197.343 365.564C197.343 365.564 194.407 303.874 195.38 300.437C196.484 296.52 198.363 295.094 199.118 294.688C198.967 292.338 199.099 290.355 199.59 288.864C204.357 274.034 237.539 258.203 237.539 258.203C237.425 258.137 237.341 257.967 237.265 257.74Z" fill="#3D3D7A"/>
<path d="M290.913 206.415L287.184 206.925C287.184 206.925 286.277 216.969 284.059 227.013L237.652 244.628L237.02 247.989C236.821 247.97 236.623 247.96 236.444 247.942C236.463 248.631 236.463 249.31 236.491 249.943C236.595 253.823 236.85 256.608 237.256 257.721C237.331 257.948 237.425 258.118 237.529 258.193C238.794 259.222 255.201 257.231 272.948 263.744C288.335 269.399 296.964 275.563 297.36 274.742C302.212 264.698 293.405 225.238 290.913 206.415Z" fill="#FF8578"/>
<path d="M286.07 229.43C284.833 235.367 281.633 247.196 275.365 248.782C267.171 250.859 251.34 250.755 236.5 249.962C236.472 249.329 236.472 248.65 236.453 247.96C236.632 247.979 236.831 247.989 237.029 248.008L237.661 244.647L284.069 227.032C286.287 216.988 287.193 206.944 287.193 206.944C287.193 206.944 287.193 207 287.212 207.114C287.297 208.652 287.929 220.651 286.07 229.43Z" fill="#F4675D"/>
<path d="M239.559 191.594C238.728 193.105 237.539 209.238 236.887 225.257L227.4 216.403C231.422 208.605 239.559 191.594 239.559 191.594Z" fill="#F4675D"/>
<path d="M233.867 236.953C225.861 238.341 218.498 239.531 218.498 239.531L218.479 239.927C209.568 232.809 196.003 212.645 196.003 212.645C196.003 212.645 200.062 207.774 201.072 206.491C201.223 206.292 223.332 221.51 224.464 221.377C224.748 221.349 225.88 219.357 227.391 216.403L236.878 225.257C236.727 229.071 236.604 232.875 236.529 236.481C235.651 236.642 234.754 236.793 233.867 236.953Z" fill="#F7B094"/>
<path d="M218.498 239.54L218.3 246.148H194.171C194.171 246.148 196.569 236.717 203.102 236.717C209.634 236.717 212.155 240.172 212.155 240.172L218.498 239.54Z" fill="url(#paint4_radial_17_990)"/>
<path d="M200.902 206.34L201.081 206.491C200.071 207.774 196.012 212.645 196.012 212.645L193.492 210.861C193.492 210.861 190.716 212.551 187.488 210.786C184.127 208.964 186.204 204.603 186.374 204.083C185.723 204.263 181.692 207.529 181.059 207.18C180.427 206.83 179.955 205.688 184.467 201.232C188.96 196.786 195.087 202.497 195.266 202.497L200.902 206.34Z" fill="#F7B094"/>
<path d="M188.017 210.031C188.017 210.031 187.044 211.852 188.772 212.645C190.499 213.438 193.86 214.005 195.304 213.873C196.749 213.731 197.9 211.711 197.9 211.711L193.529 207.604H190.027L188.017 210.031Z" fill="#F7B094"/>
<path d="M187.752 210.927C188.007 210.031 190.499 210.512 192.038 210.55C193.171 210.578 193.794 210.276 194.143 209.417C194.492 208.548 192.85 207.18 192.519 207.604C192.198 208.039 193.114 208.643 193.142 209.219C193.171 209.795 191.519 209.983 190.254 209.983C188.989 209.983 186.799 210.314 186.799 210.314L187.752 210.927Z" fill="#E8987C"/>
<path d="M281.709 235.585L258.071 227.211C256.353 230.421 254.512 232.838 252.69 233.319C249.933 234.046 243.259 235.292 236.538 236.472C235.651 236.642 234.754 236.793 233.867 236.953C225.861 238.341 218.498 239.531 218.498 239.531L218.479 239.927V240.182L218.3 246.138V247.649C218.3 247.649 226.324 247.243 236.444 247.951C250.604 248.961 268.87 249.565 274.921 246.714C277.753 245.374 280.019 240.965 281.803 235.537C281.775 235.556 281.737 235.566 281.709 235.585Z" fill="url(#paint5_radial_17_990)"/>
<path d="M258.08 227.211L281.709 235.585L280.642 238.747L257.249 228.712L258.08 227.211Z" fill="#F7B094"/>
<path d="M258.08 227.211C256.362 230.421 254.521 232.838 252.699 233.319C249.943 234.046 243.269 235.292 236.548 236.472C236.623 232.866 236.746 229.071 236.897 225.248C237.548 209.228 238.738 193.095 239.568 191.585C240.928 189.064 244.638 183.589 250.49 182.343L250.509 182.419C250.509 182.419 248.489 194.36 260.553 194.36C272.042 194.36 273.505 183.183 273.618 182.116C279.528 182.777 288.6 185.732 289.846 197.617C290.101 199.967 290.469 202.988 290.931 206.406L287.203 206.915C287.203 206.915 285.692 223.652 281.822 235.528C281.793 235.547 281.765 235.556 281.727 235.575L258.08 227.211Z" fill="#FF8578"/>
<path d="M257.835 225.04L267.265 202.195L260.317 225.956L257.835 225.04Z" fill="#6D4B35"/>
<path d="M273.6 182.116H268.455C268.455 182.116 261.139 190.15 256.428 190.15C251.718 190.15 254.257 182.154 254.257 182.154H251.963C245.365 182.154 239.823 187.11 239.077 193.662C238.993 194.407 238.917 195.125 238.851 195.767C238.351 200.628 258.042 204.168 258.042 204.168L268.181 203.602L274.336 191.585L275.563 186.667L273.6 182.116Z" fill="#FF8578"/>
<path d="M211.532 383.509C211.994 385.964 213.693 387.71 216.148 387.257L248.905 381.149C249.735 380.998 250.283 380.196 250.122 379.365L249.584 376.458C249.584 376.458 215.128 382.49 211.513 383.49L211.532 383.509Z" fill="#F1F2F2"/>
<path d="M221.283 375.268C221.623 374.976 221.953 374.674 222.293 374.381C222.954 373.796 223.596 373.22 224.219 372.663C224.549 372.37 224.88 372.078 225.182 371.794C225.776 371.256 226.343 370.756 226.853 370.303C227.211 369.972 227.551 369.661 227.863 369.387C228.42 368.887 228.882 368.471 229.203 368.188C229.477 367.943 229.892 367.924 230.175 368.169C231.525 369.302 235.877 371.889 243.76 367.008C244.137 366.772 244.628 366.895 244.836 367.291L249.603 376.458C249.603 376.458 215.147 382.49 211.531 383.491C212.711 382.754 217.101 378.95 221.283 375.268Z" fill="#3D3D7A"/>
<path d="M159.942 383.188C159.999 385.69 161.405 387.682 163.907 387.625L197.22 386.813C198.061 386.795 198.731 386.096 198.712 385.246L198.636 382.292C198.636 382.292 163.661 382.754 159.932 383.17L159.942 383.188Z" fill="#F1F2F2"/>
<path d="M170.883 376.599C171.27 376.363 171.638 376.127 172.025 375.882C172.771 375.41 173.498 374.947 174.196 374.494C174.564 374.258 174.942 374.022 175.282 373.796C175.962 373.361 176.594 372.955 177.16 372.587C177.576 372.323 177.953 372.068 178.303 371.842C178.935 371.436 179.454 371.105 179.813 370.869C180.125 370.671 180.531 370.718 180.776 371.001C181.928 372.332 185.808 375.58 194.37 372.021C194.776 371.851 195.248 372.049 195.38 372.465L198.627 382.273C198.627 382.273 163.652 382.735 159.923 383.151C161.226 382.631 166.172 379.573 170.883 376.599Z" fill="#3D3D7A"/>
<path d="M136.248 247.658L118.453 200.203H169.108L186.893 247.658H136.248Z" fill="#ABB5BA"/>
<path d="M190.027 247.658H186.893L169.108 200.203L171.95 200.336L188.404 243.278L190.027 247.658Z" fill="#8495A0"/>
<path d="M189.045 247.658H222.51L222.416 244.666C222.416 244.666 188.913 244.666 188.356 244.666" fill="#8495A0"/>
<path d="M331.637 256.702H323.575V389.079H331.637V256.702Z" fill="#8495A0"/>
<path d="M287.892 256.702H279.83V389.079H287.892V256.702Z" fill="#ABB5BA"/>
<path d="M147.764 256.702H139.703V389.079H147.764V256.702Z" fill="#8495A0"/>
<path d="M104.029 256.702H95.9671V389.079H104.029V256.702Z" fill="#ABB5BA"/>
<path d="M339.689 257.212H88.2451C86.0834 257.212 84.3275 255.456 84.3275 253.294V251.576C84.3275 249.414 86.0834 247.658 88.2451 247.658H339.689C341.851 247.658 343.607 249.414 343.607 251.576V253.294C343.607 255.456 341.86 257.212 339.689 257.212Z" fill="#141B56"/>
<path d="M126.911 205.197L127.78 207.501H137.871L137.003 205.197H126.911Z" fill="#8495A0"/>
<path d="M227.4 216.403L226.673 217.8L236.887 228.354V225.257L227.4 216.403Z" fill="#E8987C"/>
<path d="M435.807 387.38H28.0746V396.688H435.807V387.38Z" fill="#A5B7C6"/>
<path d="M371.162 318.326C369.538 326.19 370.029 339.576 359.636 341.69C356.832 342.257 354.132 340.321 352.509 338.094C350.375 335.186 349.865 329.022 349.903 325.501C349.931 322.706 350.885 319.591 351.187 316.778C351.517 313.738 351.791 310.689 352.14 307.65C353.415 296.69 359.145 287.505 368.83 282.039C369.576 285.636 371.285 288.685 372.795 292.13C373.484 293.707 374.098 295.368 374.551 297.02C375.344 299.947 374.381 302.892 373.673 305.696C372.625 309.83 372.03 314.144 371.162 318.326Z" fill="url(#paint6_linear_17_990)"/>
<path d="M357.88 341.964C357.955 341.303 358.031 340.642 358.125 339.991C359.371 339.991 360.665 339.283 361.703 338.745C363.516 337.81 364.979 336.46 366.395 335.026C366.47 334.95 366.338 334.827 366.263 334.893C364.847 336.083 363.374 337.235 361.694 338.018C360.75 338.452 359.381 339.17 358.22 339.311C358.333 338.528 358.446 337.735 358.578 336.951C359.872 336.791 361.061 335.941 362.156 335.29C364.016 334.185 365.621 332.76 367.282 331.382C367.301 331.363 367.282 331.335 367.263 331.353C364.724 333.194 361.892 335.819 358.682 336.394C358.852 335.413 359.032 334.431 359.239 333.459C359.249 333.411 359.258 333.355 359.268 333.307C362.987 332.363 365.498 329.456 368.349 327.096C368.396 327.058 368.349 326.983 368.302 327.02C365.498 329.201 362.864 331.684 359.4 332.741C359.702 331.353 360.013 329.966 360.325 328.578C363.685 327.341 366.376 325.368 368.726 322.621C368.764 322.574 368.698 322.508 368.66 322.555C366.225 325.085 363.553 326.539 360.466 327.983C360.778 326.615 361.089 325.236 361.382 323.867C362.836 323.15 364.365 322.716 365.715 321.772C367.037 320.847 368.226 319.742 369.085 318.355C369.132 318.279 369.019 318.213 368.972 318.279C367.093 320.988 364.252 321.828 361.514 323.244C361.779 321.961 362.033 320.677 362.251 319.383C365.309 317.703 368.623 316.146 370.36 312.917C370.378 312.889 370.331 312.851 370.312 312.889C368.481 315.853 365.271 317.127 362.364 318.742C362.402 318.515 362.439 318.279 362.477 318.052C362.666 316.854 362.836 315.655 363.015 314.446C364.771 313.748 366.442 312.747 368.028 311.718C369.151 310.991 370.35 310.264 371.077 309.122C371.124 309.047 371.02 308.981 370.964 309.047C369.321 311.397 365.734 312.747 363.081 313.927C363.251 312.709 363.421 311.501 363.601 310.283C366.546 308.499 370.001 307.517 371.813 304.308C371.87 304.213 371.728 304.128 371.672 304.213C369.793 307.14 366.499 308.046 363.685 309.707C363.789 308.952 363.903 308.207 364.016 307.451C367.188 306.281 370.888 303.628 372.559 300.758C372.653 300.598 372.427 300.456 372.323 300.607C370.614 303.128 367.188 305.865 364.11 306.866C364.299 305.648 364.497 304.431 364.714 303.222C364.733 303.184 364.752 303.156 364.762 303.118C366.187 302.703 367.594 301.693 368.83 300.938C370.312 300.022 371.728 298.955 372.653 297.454C372.757 297.284 372.484 297.133 372.389 297.303C370.983 299.824 367.631 301.504 364.856 302.467C364.941 302.023 365.017 301.58 365.101 301.145C365.234 300.485 365.366 299.824 365.498 299.163C366.631 298.38 368.075 298.002 369.217 297.181C370.209 296.463 371.077 295.595 371.917 294.717C372.002 294.632 371.879 294.49 371.785 294.575C370.633 295.651 369.453 296.69 368.056 297.445C367.273 297.86 366.385 298.106 365.621 298.559C365.838 297.483 366.064 296.397 366.272 295.321C366.281 295.321 366.3 295.311 366.31 295.311C366.319 295.311 366.338 295.321 366.348 295.321C366.423 295.34 366.489 295.312 366.536 295.264C368.075 294.877 369.255 293.546 370.293 292.413C370.322 292.385 370.284 292.347 370.256 292.376C369.17 293.386 367.933 294.5 366.47 294.924C366.461 294.924 366.461 294.915 366.451 294.915C366.414 294.906 366.376 294.906 366.338 294.896C366.508 294.018 366.669 293.14 366.81 292.253C366.923 292.234 367.018 292.14 366.989 292.026C367.811 291.479 368.547 290.78 369.246 290.091C369.302 290.044 369.227 289.959 369.17 290.006C368.443 290.629 367.726 291.148 366.914 291.602C367.207 289.78 367.424 287.948 367.528 286.089C367.537 285.919 367.282 285.919 367.263 286.089C367.103 287.873 366.838 289.638 366.536 291.394C365.687 290.28 364.733 289.128 364.214 287.844C364.186 287.778 364.082 287.807 364.101 287.873C364.356 288.666 364.79 289.364 365.224 290.063C365.611 290.695 365.923 291.432 366.423 291.989C366.253 292.933 366.064 293.877 365.876 294.811C364.837 294.641 363.893 294.452 363.034 293.697C361.986 292.782 361.392 291.535 361.288 290.148C361.278 289.978 361.005 289.978 361.023 290.148C361.137 291.432 361.656 292.64 362.534 293.603C363.459 294.613 364.545 294.934 365.791 295.189C365.564 296.274 365.328 297.36 365.092 298.436C364.148 297.87 363.28 297.133 362.43 296.463C361.061 295.378 360.259 294.065 359.069 292.838C358.947 292.715 358.758 292.895 358.871 293.018C359.985 294.198 360.731 295.481 362.005 296.539C362.911 297.303 363.921 298.266 365.007 298.823C364.998 298.88 364.979 298.936 364.969 298.993C364.96 299.003 364.941 299.012 364.932 299.021C364.847 299.106 364.856 299.191 364.903 299.267C364.677 300.305 364.45 301.344 364.224 302.382C364.214 302.448 364.195 302.514 364.186 302.58C361.769 301.476 358.154 299.55 357.833 296.746C357.804 296.482 357.408 296.558 357.465 296.822C358.182 299.994 361.665 301.4 364.073 303.137C363.837 304.317 363.619 305.488 363.421 306.677C361.864 306.139 360.372 305.478 359.06 304.431C357.87 303.487 356.181 302.335 355.643 300.872C355.624 300.824 355.558 300.853 355.577 300.9C356.077 302.363 357.587 303.364 358.692 304.364C360.089 305.629 361.524 306.706 363.317 307.206C363.308 307.253 363.298 307.31 363.317 307.366C363.195 308.112 363.072 308.867 362.959 309.613C360.023 309.387 355.916 307.159 354.415 304.94C354.406 304.931 354.397 304.94 354.397 304.95C355.416 306.649 356.964 307.64 358.711 308.499C360.013 309.141 361.42 309.896 362.893 310.01C362.685 311.397 362.477 312.794 362.269 314.182C360.995 313.71 359.645 313.484 358.38 312.974C356.502 312.228 355.076 310.878 353.972 309.217C353.906 309.113 353.736 309.198 353.802 309.302C355.831 312.53 358.758 313.483 362.185 314.692C362.015 315.834 361.835 316.976 361.646 318.109C358.843 317.571 355.218 315.862 353.792 313.427C353.689 313.247 353.405 313.399 353.509 313.578C354.406 315.135 355.954 316.127 357.521 316.92C358.654 317.496 360.221 318.44 361.571 318.543C361.561 318.581 361.561 318.619 361.552 318.657C361.278 320.299 360.948 321.923 360.599 323.547C357.465 322.763 355.444 320.441 353.16 318.27C352.999 318.119 352.754 318.345 352.914 318.506C355.237 320.79 357.276 323.188 360.495 324.028C360.202 325.35 359.9 326.671 359.579 327.983C356.908 327.238 354.274 325.34 352.546 323.169C352.424 323.018 352.206 323.226 352.329 323.377C354.123 325.737 356.709 327.521 359.466 328.493C359.117 329.9 358.758 331.316 358.399 332.722C355.661 332.307 353.547 330.589 351.857 328.418C351.819 328.37 351.725 328.436 351.763 328.484C353.264 330.57 355.529 332.977 358.257 333.232C358.144 333.685 358.021 334.129 357.908 334.582C357.842 334.856 357.767 335.129 357.691 335.403C355.624 334.799 353.707 334.053 351.999 332.656C351.952 332.618 351.895 332.694 351.942 332.732C353.566 334.195 355.501 335.177 357.578 335.809C357.351 336.649 357.106 337.527 356.86 338.405C356.351 338.169 355.85 337.905 355.293 337.735C354.264 337.423 353.604 336.772 352.707 336.234C352.622 336.187 352.537 336.3 352.612 336.357C353.396 336.866 353.953 337.527 354.85 337.867C355.51 338.112 356.143 338.433 356.785 338.717C355.841 342.228 355.01 345.957 355.463 349.327C355.567 350.073 356.813 350.271 357.011 349.478C357.625 347.071 357.597 344.456 357.88 341.964Z" fill="#747DED"/>
<path d="M338.264 316.08C340.114 323.886 346.203 335.819 337.678 342.125C335.384 343.824 332.109 343.21 329.692 341.879C326.53 340.142 323.471 334.771 322.017 331.561C320.866 329.012 320.413 325.793 319.506 323.112C318.525 320.214 317.477 317.335 316.514 314.428C313.049 303.949 314.361 293.216 320.828 284.163C323.027 287.108 325.859 289.147 328.682 291.639C329.966 292.772 331.231 294.018 332.335 295.33C334.289 297.643 334.667 300.73 335.205 303.562C335.998 307.763 337.282 311.926 338.264 316.08Z" fill="url(#paint7_linear_17_990)"/>
<path d="M336.187 343.116C335.979 342.483 335.771 341.851 335.573 341.218C336.697 340.69 337.574 339.51 338.292 338.575C339.538 336.961 340.293 335.12 340.982 333.223C341.02 333.119 340.85 333.062 340.803 333.157C340.019 334.837 339.179 336.498 337.98 337.924C337.31 338.717 336.366 339.944 335.375 340.557C335.139 339.802 334.922 339.038 334.705 338.273C335.809 337.584 336.527 336.309 337.244 335.262C338.462 333.477 339.311 331.505 340.237 329.55C340.246 329.532 340.218 329.513 340.199 329.532C338.679 332.279 337.216 335.847 334.554 337.725C334.289 336.763 334.044 335.8 333.817 334.827C333.808 334.78 333.798 334.724 333.78 334.676C336.753 332.26 337.801 328.55 339.387 325.217C339.415 325.161 339.33 325.114 339.302 325.17C337.678 328.323 336.338 331.693 333.647 334.11C333.336 332.722 333.034 331.335 332.732 329.947C335.262 327.408 336.857 324.481 337.829 321.007C337.848 320.951 337.763 320.913 337.744 320.979C336.612 324.302 334.79 326.747 332.6 329.362C332.307 327.983 332.005 326.615 331.684 325.246C332.703 323.981 333.902 322.942 334.724 321.526C335.535 320.129 336.149 318.619 336.338 317.005C336.347 316.92 336.225 316.901 336.206 316.986C335.639 320.233 333.421 322.197 331.542 324.642C331.24 323.367 330.929 322.093 330.579 320.828C332.637 318.015 334.988 315.202 335.196 311.548C335.196 311.511 335.148 311.501 335.139 311.539C334.724 314.994 332.354 317.505 330.4 320.195C330.334 319.969 330.277 319.742 330.211 319.516C329.871 318.345 329.522 317.184 329.173 316.023C330.466 314.645 331.561 313.04 332.562 311.435C333.27 310.302 334.053 309.141 334.233 307.791C334.242 307.706 334.119 307.687 334.101 307.772C333.61 310.595 330.929 313.332 329.022 315.523C328.663 314.352 328.304 313.181 327.955 312.001C329.871 309.151 332.59 306.791 332.883 303.118C332.892 303.005 332.732 302.986 332.713 303.1C332.25 306.545 329.635 308.754 327.795 311.454C327.577 310.727 327.36 310 327.143 309.273C329.532 306.876 331.759 302.901 332.062 299.597C332.08 299.418 331.807 299.38 331.778 299.56C331.297 302.561 329.333 306.498 326.973 308.697C326.633 307.517 326.294 306.328 325.982 305.139C325.992 305.101 325.992 305.063 325.982 305.025C327.096 304.044 327.955 302.533 328.748 301.325C329.711 299.871 330.542 298.304 330.74 296.548C330.759 296.35 330.457 296.331 330.438 296.52C330.221 299.399 327.898 302.344 325.793 304.383C325.68 303.949 325.567 303.515 325.463 303.071C325.302 302.42 325.142 301.759 324.991 301.108C325.689 299.918 326.841 298.974 327.521 297.738C328.116 296.671 328.531 295.519 328.937 294.358C328.975 294.245 328.805 294.169 328.758 294.292C328.172 295.755 327.54 297.2 326.586 298.465C326.058 299.173 325.35 299.767 324.849 300.504C324.594 299.427 324.34 298.361 324.075 297.294C324.085 297.284 324.094 297.275 324.104 297.266C324.113 297.266 324.132 297.256 324.141 297.256C324.217 297.237 324.264 297.181 324.283 297.124C325.52 296.123 326.029 294.415 326.492 292.952C326.501 292.914 326.454 292.895 326.435 292.933C325.869 294.301 325.227 295.831 324.085 296.841C324.075 296.841 324.075 296.841 324.066 296.841C324.028 296.85 323.99 296.86 323.962 296.869C323.745 296.001 323.518 295.132 323.282 294.273C323.377 294.207 323.424 294.084 323.348 293.99C323.858 293.15 324.236 292.196 324.576 291.281C324.604 291.215 324.5 291.167 324.472 291.233C324.075 292.102 323.65 292.876 323.094 293.631C322.584 291.856 322.017 290.101 321.328 288.373C321.262 288.213 321.026 288.326 321.083 288.477C321.687 290.157 322.197 291.875 322.659 293.593C321.413 292.942 320.073 292.3 319.063 291.356C319.006 291.309 318.93 291.375 318.978 291.432C319.544 292.045 320.233 292.489 320.922 292.942C321.545 293.348 322.131 293.886 322.82 294.188C323.065 295.113 323.292 296.048 323.509 296.982C322.499 297.266 321.555 297.492 320.469 297.171C319.138 296.784 318.071 295.906 317.392 294.689C317.307 294.537 317.061 294.651 317.156 294.802C317.807 295.916 318.779 296.803 319.978 297.294C321.243 297.813 322.367 297.653 323.603 297.36C323.858 298.436 324.104 299.522 324.34 300.598C323.254 300.485 322.15 300.183 321.092 299.928C319.393 299.512 318.109 298.672 316.514 298.059C316.353 298.002 316.249 298.238 316.41 298.304C317.92 298.908 319.138 299.748 320.734 300.183C321.885 300.494 323.197 300.938 324.425 300.994C324.434 301.051 324.453 301.108 324.462 301.164C324.453 301.183 324.453 301.193 324.443 301.212C324.406 301.325 324.453 301.4 324.528 301.438C324.755 302.477 324.991 303.515 325.227 304.544C325.246 304.61 325.255 304.676 325.274 304.733C322.612 304.752 318.525 304.534 317.052 302.127C316.91 301.901 316.58 302.137 316.75 302.354C318.742 304.931 322.499 304.733 325.406 305.29C325.689 306.451 325.992 307.612 326.303 308.773C324.661 308.943 323.037 308.971 321.404 308.575C319.922 308.216 317.911 307.895 316.806 306.791C316.769 306.753 316.721 306.809 316.759 306.847C317.826 307.961 319.62 308.235 321.045 308.669C322.848 309.226 324.594 309.594 326.435 309.292C326.445 309.349 326.464 309.396 326.501 309.434C326.709 310.161 326.917 310.897 327.124 311.624C324.368 312.662 319.705 312.37 317.401 310.991C317.392 310.982 317.382 311.001 317.392 311.01C319.034 312.115 320.856 312.36 322.801 312.407C324.255 312.436 325.85 312.53 327.238 312.011C327.634 313.361 328.031 314.711 328.437 316.051C327.077 316.155 325.765 316.523 324.406 316.599C322.385 316.712 320.526 316.089 318.827 315.06C318.723 314.994 318.609 315.145 318.713 315.211C321.923 317.288 324.972 316.91 328.588 316.561C328.918 317.665 329.229 318.779 329.541 319.884C326.775 320.582 322.763 320.564 320.45 318.949C320.28 318.827 320.082 319.081 320.252 319.204C321.725 320.243 323.537 320.488 325.302 320.545C326.577 320.582 328.389 320.79 329.654 320.309C329.664 320.346 329.673 320.384 329.683 320.422C330.126 322.027 330.513 323.641 330.882 325.255C327.71 325.859 324.897 324.613 321.914 323.603C321.706 323.537 321.583 323.849 321.791 323.924C324.859 325.019 327.719 326.322 330.995 325.727C331.287 327.049 331.571 328.37 331.835 329.701C329.097 330.155 325.907 329.55 323.424 328.304C323.245 328.219 323.141 328.493 323.311 328.588C325.935 329.966 329.031 330.494 331.939 330.211C332.222 331.637 332.486 333.062 332.751 334.497C330.089 335.271 327.455 334.61 325 333.355C324.944 333.326 324.887 333.421 324.944 333.459C327.181 334.714 330.258 335.941 332.836 335.026C332.921 335.479 333.005 335.941 333.09 336.394C333.138 336.668 333.194 336.951 333.242 337.235C331.108 337.556 329.06 337.688 326.926 337.15C326.869 337.131 326.851 337.225 326.907 337.244C328.993 337.886 331.165 337.952 333.317 337.659C333.468 338.518 333.61 339.415 333.77 340.312C333.204 340.312 332.647 340.284 332.062 340.369C330.995 340.52 330.117 340.218 329.078 340.104C328.984 340.095 328.946 340.236 329.05 340.255C329.975 340.388 330.759 340.756 331.712 340.68C332.42 340.624 333.119 340.652 333.827 340.642C334.459 344.22 335.271 347.958 337.112 350.828C337.518 351.461 338.736 351.111 338.575 350.309C338.122 347.845 336.989 345.495 336.187 343.116Z" fill="#747DED"/>
<path d="M356.285 310.029C356.728 319.95 361.373 335.866 349.535 341.558C346.344 343.087 342.512 341.586 339.887 339.406C336.451 336.564 333.968 329.324 332.949 325.085C332.137 321.725 332.335 317.703 331.854 314.229C331.325 310.482 330.73 306.734 330.23 302.986C328.446 289.449 332.524 276.696 342.483 267.199C344.475 271.287 347.449 274.421 350.3 278.112C351.602 279.792 352.848 281.595 353.887 283.445C355.728 286.712 355.473 290.544 355.463 294.122C355.454 299.39 356.049 304.742 356.285 310.029Z" fill="url(#paint8_linear_17_990)"/>
<path d="M347.505 342.408C347.392 341.596 347.288 340.775 347.194 339.963C348.685 339.585 350.026 338.339 351.111 337.376C352.999 335.705 354.349 333.647 355.614 331.486C355.68 331.372 355.492 331.259 355.416 331.363C354.076 333.223 352.66 335.045 350.875 336.508C349.884 337.32 348.449 338.594 347.099 339.113C346.996 338.131 346.901 337.159 346.816 336.177C348.317 335.592 349.488 334.214 350.602 333.1C352.499 331.212 353.991 329.012 355.558 326.851C355.577 326.822 355.539 326.794 355.52 326.822C353.037 329.805 350.432 333.808 346.76 335.469C346.665 334.242 346.59 333.005 346.533 331.778C346.533 331.712 346.533 331.646 346.524 331.589C350.696 329.333 352.829 325.076 355.529 321.385C355.577 321.328 355.492 321.243 355.444 321.309C352.745 324.774 350.337 328.55 346.495 330.863C346.429 329.107 346.391 327.341 346.344 325.586C350.007 323.075 352.631 319.903 354.614 315.891C354.651 315.825 354.548 315.768 354.51 315.834C352.357 319.61 349.582 322.168 346.325 324.83C346.278 323.093 346.24 321.347 346.174 319.61C347.704 318.307 349.403 317.326 350.734 315.787C352.046 314.277 353.132 312.587 353.736 310.67C353.764 310.567 353.613 310.519 353.575 310.623C352.14 314.437 348.987 316.306 346.127 318.845C346.061 317.222 345.967 315.608 345.844 313.984C348.997 311.039 352.509 308.159 353.613 303.77C353.622 303.723 353.556 303.704 353.547 303.741C352.244 307.848 348.789 310.349 345.778 313.172C345.749 312.879 345.731 312.596 345.712 312.304C345.57 310.812 345.419 309.311 345.259 307.82C347.156 306.441 348.855 304.742 350.441 303.033C351.565 301.816 352.782 300.589 353.32 298.984C353.358 298.88 353.207 298.823 353.169 298.927C351.914 302.241 348.025 304.959 345.193 307.168C345.032 305.658 344.872 304.157 344.711 302.646C347.704 299.616 351.555 297.388 352.754 292.989C352.792 292.857 352.593 292.801 352.556 292.923C351.196 297.001 347.505 299.088 344.645 301.938C344.551 301.004 344.447 300.069 344.362 299.135C347.817 296.775 351.442 292.461 352.584 288.505C352.65 288.288 352.329 288.184 352.254 288.392C350.97 291.932 347.685 296.256 344.296 298.389C344.154 296.869 344.022 295.359 343.909 293.839C343.928 293.792 343.937 293.745 343.937 293.697C345.523 292.763 346.911 291.13 348.157 289.846C349.658 288.298 351.036 286.589 351.687 284.503C351.763 284.276 351.385 284.172 351.329 284.408C350.403 287.854 346.892 290.894 343.861 292.895C343.824 292.338 343.786 291.781 343.758 291.224C343.71 290.393 343.673 289.563 343.635 288.722C344.758 287.439 346.373 286.551 347.486 285.211C348.459 284.05 349.233 282.747 349.988 281.435C350.064 281.303 349.875 281.18 349.79 281.312C348.742 282.955 347.637 284.559 346.184 285.881C345.372 286.617 344.371 287.174 343.607 287.958C343.55 286.598 343.484 285.239 343.408 283.87C343.427 283.861 343.437 283.851 343.456 283.851C343.474 283.851 343.493 283.851 343.503 283.851C343.607 283.842 343.673 283.795 343.71 283.729C345.447 282.794 346.457 280.84 347.354 279.169C347.373 279.131 347.317 279.094 347.298 279.131C346.297 280.67 345.155 282.379 343.531 283.342C343.522 283.342 343.522 283.342 343.512 283.342C343.465 283.342 343.418 283.351 343.371 283.351C343.305 282.247 343.229 281.142 343.144 280.038C343.276 279.981 343.361 279.839 343.295 279.707C344.107 278.801 344.787 277.734 345.419 276.705C345.466 276.63 345.353 276.554 345.306 276.63C344.626 277.602 343.918 278.433 343.078 279.226C342.87 276.951 342.587 274.685 342.143 272.429C342.106 272.221 341.794 272.297 341.822 272.505C342.172 274.695 342.398 276.885 342.559 279.094C341.199 278.008 339.717 276.922 338.698 275.544C338.641 275.469 338.528 275.535 338.575 275.62C339.123 276.498 339.859 277.196 340.595 277.914C341.256 278.556 341.851 279.339 342.615 279.868C342.7 281.048 342.757 282.237 342.814 283.427C341.52 283.54 340.321 283.597 339.075 282.955C337.546 282.171 336.451 280.859 335.904 279.226C335.837 279.028 335.517 279.113 335.583 279.311C336.111 280.821 337.093 282.114 338.443 283.002C339.859 283.927 341.256 283.984 342.833 283.917C342.889 285.286 342.936 286.655 342.984 288.033C341.681 287.646 340.416 287.023 339.189 286.466C337.216 285.569 335.856 284.248 334.053 283.134C333.874 283.021 333.695 283.294 333.874 283.408C335.564 284.493 336.857 285.796 338.698 286.683C340.019 287.325 341.52 288.175 342.993 288.515C342.993 288.59 342.993 288.656 343.002 288.732C342.993 288.751 342.974 288.76 342.965 288.779C342.889 288.902 342.927 289.015 343.012 289.081C343.05 290.393 343.097 291.705 343.144 293.018C343.144 293.103 343.153 293.178 343.153 293.263C339.916 292.668 334.997 291.46 333.761 288.184C333.647 287.873 333.185 288.081 333.345 288.392C335.167 291.989 339.783 292.612 343.191 293.962C343.267 295.444 343.361 296.926 343.474 298.398C341.435 298.229 339.453 297.879 337.565 297.03C335.847 296.256 333.477 295.397 332.382 293.792C332.345 293.745 332.279 293.801 332.307 293.848C333.345 295.453 335.469 296.199 337.093 297.058C339.151 298.153 341.199 299.003 343.503 299.069C343.503 299.135 343.512 299.201 343.55 299.257C343.625 300.192 343.71 301.127 343.805 302.061C340.208 302.684 334.61 301.249 332.128 299.04C332.118 299.031 332.099 299.05 332.109 299.059C333.855 300.787 336.007 301.504 338.358 302.005C340.114 302.382 342.04 302.864 343.843 302.552C344.013 304.28 344.192 306.017 344.362 307.744C342.691 307.565 341.001 307.697 339.33 307.47C336.857 307.14 334.724 305.96 332.902 304.298C332.788 304.195 332.618 304.346 332.732 304.459C336.149 307.725 339.944 307.971 344.428 308.386C344.569 309.802 344.702 311.227 344.815 312.653C341.284 312.861 336.413 311.907 333.978 309.415C333.798 309.236 333.506 309.5 333.685 309.679C335.233 311.284 337.386 311.992 339.519 312.473C341.058 312.813 343.22 313.484 344.872 313.191C344.872 313.238 344.881 313.285 344.881 313.333C345.041 315.381 345.155 317.439 345.221 319.487C341.228 319.497 338.094 317.326 334.695 315.409C334.459 315.277 334.233 315.626 334.469 315.768C337.943 317.807 341.114 320.063 345.24 320.092C345.296 321.762 345.325 323.443 345.344 325.114C341.917 325.029 338.169 323.556 335.441 321.47C335.243 321.319 335.054 321.64 335.243 321.791C338.113 324.075 341.756 325.435 345.353 325.765C345.362 327.559 345.362 329.362 345.353 331.155C341.936 331.486 338.887 330.07 336.196 327.974C336.13 327.927 336.045 328.031 336.111 328.087C338.547 330.136 341.992 332.335 345.344 331.816C345.344 332.392 345.334 332.968 345.334 333.534C345.334 333.883 345.325 334.233 345.325 334.591C342.663 334.488 340.133 334.176 337.669 333.024C337.603 332.996 337.556 333.1 337.622 333.128C340.01 334.384 342.634 334.978 345.315 335.12C345.296 336.206 345.268 337.32 345.249 338.452C344.56 338.32 343.89 338.16 343.163 338.122C341.832 338.065 340.841 337.48 339.604 337.112C339.491 337.074 339.415 337.244 339.529 337.282C340.624 337.659 341.492 338.282 342.663 338.415C343.531 338.509 344.381 338.707 345.24 338.849C345.174 343.352 345.306 348.081 346.873 351.989C347.222 352.858 348.789 352.716 348.78 351.697C348.751 348.61 347.921 345.495 347.505 342.408Z" fill="#747DED"/>
<path d="M362.808 346.127L362.373 354.189L361.684 366.753L360.561 387.38H332.628L331.505 366.753L330.825 354.189L330.381 346.127H362.808Z" fill="#95A8B5"/>
<path d="M362.373 354.189L362.288 355.813L362.194 357.483L361.684 366.753H331.505L331.004 357.483L330.91 355.813L330.825 354.189H362.373Z" fill="#A5B7C6"/>
<path d="M362.288 355.812L362.194 357.483H331.004L330.91 355.812H362.288Z" fill="#95A8B5"/>
<defs>
<radialGradient id="paint0_radial_17_990" cx="0" cy="0" r="1" gradientUnits="userSpaceOnUse" gradientTransform="translate(261.979 181.605) scale(12.2017 12.2017)">
<stop stop-color="#FFC8AF"/>
<stop offset="1" stop-color="#FFBB9C"/>
</radialGradient>
<radialGradient id="paint1_radial_17_990" cx="0" cy="0" r="1" gradientUnits="userSpaceOnUse" gradientTransform="translate(254.919 159.52) rotate(-12.1516) scale(19.2365 19.2365)">
<stop stop-color="#FFC8AF"/>
<stop offset="1" stop-color="#FFBB9C"/>
</radialGradient>
<radialGradient id="paint2_radial_17_990" cx="0" cy="0" r="1" gradientUnits="userSpaceOnUse" gradientTransform="translate(235.965 365.845) scale(7.67085 7.67085)">
<stop stop-color="#FFC8AF"/>
<stop offset="1" stop-color="#FFBB9C"/>
</radialGradient>
<radialGradient id="paint3_radial_17_990" cx="0" cy="0" r="1" gradientUnits="userSpaceOnUse" gradientTransform="translate(187.383 367.769) scale(6.98701 6.98701)">
<stop stop-color="#FFC8AF"/>
<stop offset="1" stop-color="#FFBB9C"/>
</radialGradient>
<radialGradient id="paint4_radial_17_990" cx="0" cy="0" r="1" gradientUnits="userSpaceOnUse" gradientTransform="translate(229.921 236.658) scale(39.1233 39.1233)">
<stop stop-color="#FFC8AF"/>
<stop offset="1" stop-color="#FFBB9C"/>
</radialGradient>
<radialGradient id="paint5_radial_17_990" cx="0" cy="0" r="1" gradientUnits="userSpaceOnUse" gradientTransform="translate(229.921 236.658) scale(39.1231 39.1231)">
<stop stop-color="#FFC8AF"/>
<stop offset="1" stop-color="#FFBB9C"/>
</radialGradient>
<linearGradient id="paint6_linear_17_990" x1="362.373" y1="282.042" x2="362.375" y2="341.797" gradientUnits="userSpaceOnUse">
<stop stop-color="#606BF1"/>
<stop offset="1" stop-color="#58479F"/>
</linearGradient>
<linearGradient id="paint7_linear_17_990" x1="314.975" y1="286.893" x2="340.199" y2="341.065" gradientUnits="userSpaceOnUse">
<stop stop-color="#606BF1"/>
<stop offset="1" stop-color="#58479F"/>
</linearGradient>
<linearGradient id="paint8_linear_17_990" x1="334.731" y1="269.153" x2="352.85" y2="340.85" gradientUnits="userSpaceOnUse">
<stop stop-color="#606BF1"/>
<stop offset="1" stop-color="#58479F"/>
</linearGradient>
</defs>
</svg>
