<svg width="71" height="58" viewBox="0 0 71 58" fill="none" xmlns="http://www.w3.org/2000/svg">
<g clip-path="url(#clip0_20_2227)">
<path d="M67.3401 0H18.222C16.2046 0 14.5621 1.66652 14.5621 3.71357V28.8163H3.65993C1.64244 28.8163 0 30.4828 0 32.5299V54.2864C0 56.3466 1.64244 58 3.65993 58H39.3022C41.3197 58 42.9621 56.3335 42.9621 54.2864V46.5443H67.3401C69.3576 46.5443 71 44.8778 71 42.8308V3.71357C71 1.66652 69.3705 0 67.3401 0ZM39.3281 54.3127H3.64699V32.5167H14.575V42.8439C14.575 44.891 16.2175 46.5575 18.235 46.5575H39.341V54.3127H39.3281ZM39.3281 42.857H18.2091V32.5167H39.3281V42.857ZM67.3659 42.857H42.9621V32.5299C42.9621 30.4828 41.3197 28.8163 39.3022 28.8163H18.2091V3.70045H67.3659V42.857Z" fill="#233A41"/>
<path d="M46.0789 27.9109L56.412 17.4263L60.0719 20.943C60.6022 21.5073 61.3135 21.796 62.0506 21.796C62.3869 21.796 62.7231 21.7304 63.0464 21.5992C64.1199 21.1792 64.8182 20.1557 64.8182 18.9878V9.08061C64.8182 7.53219 63.5767 6.27246 62.0506 6.27246H51.7175C50.6311 6.27246 49.6353 6.92857 49.1956 7.93898C48.7559 8.94938 48.937 10.1304 49.6741 10.9571L53.7608 14.8806L43.5053 25.2865L46.0789 27.9109ZM61.1712 9.97291V16.9145L53.929 9.97291H61.1712Z" fill="#233A41"/>
</g>
<defs>
<clipPath id="clip0_20_2227">
<rect width="71" height="58" fill="white"/>
</clipPath>
</defs>
</svg>
