<svg width="18" height="21" viewBox="0 0 18 21" fill="none" xmlns="http://www.w3.org/2000/svg">
<path d="M17.7465 6.79438C16.6817 2.1093 12.5949 0 9.00506 0C9.00506 0 9.00506 0 8.99492 0C5.4152 0 1.31829 2.09916 0.253499 6.78424C-0.932981 12.0169 2.27153 16.4485 5.17182 19.2372C6.24675 20.2716 7.62591 20.7888 9.00506 20.7888C10.3842 20.7888 11.7634 20.2716 12.8282 19.2372C15.7285 16.4485 18.933 12.0271 17.7465 6.79438ZM9.00506 11.875C7.24055 11.875 5.81069 10.4451 5.81069 8.68058C5.81069 6.91607 7.24055 5.48621 9.00506 5.48621C10.7696 5.48621 12.1994 6.91607 12.1994 8.68058C12.1994 10.4451 10.7696 11.875 9.00506 11.875Z" fill="#2FC980"/>
</svg>
